<svg xmlns="http://www.w3.org/2000/svg" xmlns:xlink="http://www.w3.org/1999/xlink" width="500" zoomAndPan="magnify" viewBox="0 0 375 374.999991" height="500" preserveAspectRatio="xMidYMid meet" version="1.0"><defs><clipPath id="50bf5dd54c"><path d="M 45.988281 37.5 L 328.738281 37.5 L 328.738281 320.25 L 45.988281 320.25 Z M 45.988281 37.5 " clip-rule="nonzero"/></clipPath></defs><path fill="#ffffff" d="M 254.191406 108.253906 L 120.808594 108.253906 C 120.09375 108.253906 119.382812 108.292969 118.675781 108.363281 C 117.96875 108.433594 117.261719 108.539062 116.566406 108.675781 C 115.867188 108.816406 115.175781 108.988281 114.496094 109.195312 C 113.8125 109.402344 113.144531 109.644531 112.488281 109.917969 C 111.828125 110.191406 111.1875 110.496094 110.558594 110.832031 C 109.929688 111.167969 109.320312 111.53125 108.726562 111.929688 C 108.136719 112.324219 107.566406 112.746094 107.015625 113.199219 C 106.464844 113.652344 105.9375 114.128906 105.433594 114.632812 C 104.929688 115.136719 104.453125 115.664062 104 116.214844 C 103.546875 116.765625 103.125 117.335938 102.730469 117.925781 C 102.332031 118.519531 101.96875 119.128906 101.632812 119.757812 C 101.296875 120.386719 100.992188 121.027344 100.71875 121.6875 C 100.445312 122.34375 100.203125 123.011719 99.996094 123.695312 C 99.789062 124.375 99.617188 125.066406 99.476562 125.765625 C 99.339844 126.460938 99.234375 127.167969 99.164062 127.875 C 99.09375 128.582031 99.054688 129.292969 99.054688 130.007812 L 99.054688 228.011719 C 99.054688 228.726562 99.09375 229.4375 99.164062 230.144531 C 99.234375 230.851562 99.339844 231.558594 99.476562 232.253906 C 99.617188 232.953125 99.789062 233.644531 99.996094 234.324219 C 100.203125 235.007812 100.445312 235.675781 100.71875 236.332031 C 100.992188 236.992188 101.296875 237.632812 101.632812 238.261719 C 101.96875 238.890625 102.332031 239.5 102.730469 240.09375 C 103.125 240.683594 103.546875 241.253906 104 241.804688 C 104.453125 242.355469 104.929688 242.882812 105.433594 243.386719 C 105.9375 243.890625 106.464844 244.367188 107.015625 244.820312 C 107.566406 245.273438 108.136719 245.695312 108.726562 246.089844 C 109.320312 246.488281 109.929688 246.851562 110.558594 247.1875 C 111.1875 247.523438 111.828125 247.828125 112.488281 248.101562 C 113.144531 248.375 113.8125 248.617188 114.496094 248.824219 C 115.175781 249.03125 115.867188 249.203125 116.566406 249.34375 C 117.261719 249.480469 117.96875 249.585938 118.675781 249.65625 C 119.382812 249.726562 120.09375 249.765625 120.808594 249.765625 L 254.191406 249.765625 C 254.902344 249.765625 255.613281 249.726562 256.324219 249.65625 C 257.03125 249.585938 257.734375 249.480469 258.433594 249.34375 C 259.132812 249.203125 259.820312 249.03125 260.503906 248.824219 C 261.183594 248.617188 261.855469 248.375 262.511719 248.101562 C 263.167969 247.828125 263.8125 247.523438 264.441406 247.1875 C 265.070312 246.851562 265.679688 246.488281 266.269531 246.089844 C 266.863281 245.695312 267.433594 245.273438 267.984375 244.820312 C 268.535156 244.367188 269.0625 243.890625 269.566406 243.386719 C 270.070312 242.882812 270.546875 242.355469 271 241.804688 C 271.449219 241.253906 271.875 240.683594 272.269531 240.09375 C 272.664062 239.5 273.03125 238.890625 273.367188 238.261719 C 273.703125 237.632812 274.007812 236.992188 274.28125 236.332031 C 274.554688 235.675781 274.792969 235.007812 275 234.324219 C 275.207031 233.644531 275.382812 232.953125 275.519531 232.253906 C 275.660156 231.558594 275.765625 230.851562 275.835938 230.144531 C 275.90625 229.4375 275.941406 228.726562 275.941406 228.011719 L 275.941406 130.007812 C 275.941406 129.292969 275.90625 128.582031 275.835938 127.875 C 275.765625 127.167969 275.660156 126.460938 275.519531 125.765625 C 275.382812 125.066406 275.207031 124.375 275 123.695312 C 274.792969 123.011719 274.554688 122.34375 274.28125 121.6875 C 274.007812 121.027344 273.703125 120.386719 273.367188 119.757812 C 273.03125 119.128906 272.664062 118.519531 272.269531 117.925781 C 271.875 117.335938 271.449219 116.765625 271 116.214844 C 270.546875 115.664062 270.070312 115.136719 269.566406 114.632812 C 269.0625 114.128906 268.535156 113.652344 267.984375 113.199219 C 267.433594 112.746094 266.863281 112.324219 266.269531 111.929688 C 265.679688 111.53125 265.070312 111.167969 264.441406 110.832031 C 263.8125 110.496094 263.167969 110.191406 262.511719 109.917969 C 261.855469 109.644531 261.183594 109.402344 260.503906 109.195312 C 259.820312 108.988281 259.132812 108.816406 258.433594 108.675781 C 257.734375 108.539062 257.03125 108.433594 256.324219 108.363281 C 255.613281 108.292969 254.902344 108.253906 254.191406 108.253906 Z M 120.808594 120.046875 L 254.191406 120.046875 C 254.84375 120.046875 255.492188 120.113281 256.132812 120.242188 C 256.773438 120.367188 257.398438 120.558594 258 120.808594 C 258.605469 121.058594 259.179688 121.367188 259.722656 121.730469 C 260.265625 122.09375 260.769531 122.503906 261.230469 122.96875 C 261.691406 123.429688 262.105469 123.933594 262.46875 124.476562 C 262.832031 125.019531 263.140625 125.59375 263.390625 126.195312 C 263.640625 126.800781 263.828125 127.421875 263.957031 128.0625 C 264.085938 128.707031 264.148438 129.351562 264.152344 130.007812 L 264.152344 134.515625 L 187.5 183.792969 L 110.847656 134.515625 L 110.847656 130.007812 C 110.847656 129.351562 110.914062 128.707031 111.042969 128.0625 C 111.167969 127.421875 111.359375 126.800781 111.609375 126.195312 C 111.859375 125.59375 112.167969 125.019531 112.53125 124.476562 C 112.894531 123.933594 113.304688 123.429688 113.769531 122.96875 C 114.230469 122.503906 114.734375 122.09375 115.277344 121.730469 C 115.820312 121.367188 116.394531 121.058594 116.996094 120.808594 C 117.601562 120.558594 118.222656 120.367188 118.863281 120.242188 C 119.507812 120.113281 120.152344 120.046875 120.808594 120.046875 Z M 254.191406 237.972656 L 120.808594 237.972656 C 120.152344 237.972656 119.507812 237.90625 118.863281 237.777344 C 118.222656 237.652344 117.601562 237.460938 116.996094 237.210938 C 116.394531 236.960938 115.820312 236.652344 115.277344 236.289062 C 114.734375 235.925781 114.230469 235.515625 113.769531 235.050781 C 113.304688 234.589844 112.894531 234.085938 112.53125 233.542969 C 112.167969 233 111.859375 232.425781 111.609375 231.824219 C 111.359375 231.21875 111.167969 230.597656 111.042969 229.957031 C 110.914062 229.316406 110.847656 228.667969 110.847656 228.011719 L 110.847656 148.539062 L 184.308594 195.761719 C 184.785156 196.066406 185.292969 196.300781 185.835938 196.460938 C 186.378906 196.617188 186.933594 196.699219 187.5 196.699219 C 188.066406 196.699219 188.621094 196.617188 189.160156 196.460938 C 189.703125 196.300781 190.214844 196.066406 190.6875 195.761719 L 264.152344 148.539062 L 264.152344 228.011719 C 264.148438 228.667969 264.085938 229.316406 263.957031 229.957031 C 263.828125 230.597656 263.640625 231.21875 263.390625 231.824219 C 263.140625 232.425781 262.832031 233 262.46875 233.542969 C 262.105469 234.085938 261.691406 234.589844 261.230469 235.050781 C 260.769531 235.515625 260.265625 235.925781 259.722656 236.289062 C 259.179688 236.652344 258.605469 236.960938 258 237.210938 C 257.398438 237.460938 256.773438 237.652344 256.132812 237.777344 C 255.492188 237.90625 254.84375 237.972656 254.191406 237.972656 Z M 254.191406 237.972656 " fill-opacity="1" fill-rule="nonzero"/><g clip-path="url(#50bf5dd54c)"><path fill="#ffffff" d="M 187.5 37.5 C 185.183594 37.5 182.867188 37.558594 180.554688 37.671875 C 178.242188 37.785156 175.933594 37.953125 173.628906 38.179688 C 171.324219 38.410156 169.027344 38.691406 166.734375 39.03125 C 164.445312 39.371094 162.164062 39.765625 159.890625 40.21875 C 157.621094 40.671875 155.363281 41.179688 153.117188 41.742188 C 150.867188 42.304688 148.636719 42.921875 146.421875 43.59375 C 144.207031 44.265625 142.007812 44.992188 139.828125 45.773438 C 137.644531 46.550781 135.484375 47.386719 133.347656 48.273438 C 131.207031 49.15625 129.089844 50.097656 126.996094 51.085938 C 124.902344 52.078125 122.835938 53.117188 120.792969 54.210938 C 118.75 55.300781 116.734375 56.441406 114.75 57.632812 C 112.761719 58.824219 110.804688 60.0625 108.878906 61.347656 C 106.957031 62.636719 105.0625 63.96875 103.203125 65.347656 C 101.34375 66.726562 99.515625 68.152344 97.726562 69.621094 C 95.9375 71.089844 94.183594 72.601562 92.46875 74.15625 C 90.75 75.714844 89.074219 77.308594 87.4375 78.945312 C 85.800781 80.585938 84.203125 82.261719 82.648438 83.976562 C 81.09375 85.695312 79.582031 87.445312 78.109375 89.238281 C 76.640625 91.027344 75.21875 92.851562 73.835938 94.710938 C 72.457031 96.574219 71.125 98.464844 69.839844 100.390625 C 68.550781 102.316406 67.3125 104.273438 66.121094 106.257812 C 64.933594 108.246094 63.789062 110.261719 62.699219 112.300781 C 61.605469 114.34375 60.566406 116.414062 59.574219 118.507812 C 58.585938 120.601562 57.648438 122.714844 56.761719 124.855469 C 55.875 126.996094 55.042969 129.15625 54.261719 131.335938 C 53.480469 133.515625 52.753906 135.714844 52.082031 137.933594 C 51.410156 140.148438 50.792969 142.378906 50.230469 144.625 C 49.667969 146.871094 49.160156 149.132812 48.707031 151.402344 C 48.257812 153.675781 47.859375 155.957031 47.519531 158.246094 C 47.179688 160.535156 46.898438 162.835938 46.671875 165.140625 C 46.445312 167.445312 46.273438 169.753906 46.160156 172.066406 C 46.046875 174.378906 45.988281 176.695312 45.988281 179.007812 C 45.988281 181.324219 46.046875 183.640625 46.160156 185.953125 C 46.273438 188.265625 46.445312 190.574219 46.671875 192.878906 C 46.898438 195.183594 47.179688 197.484375 47.519531 199.773438 C 47.859375 202.0625 48.257812 204.34375 48.707031 206.617188 C 49.160156 208.886719 49.667969 211.148438 50.230469 213.394531 C 50.792969 215.640625 51.410156 217.871094 52.082031 220.085938 C 52.753906 222.304688 53.480469 224.503906 54.261719 226.683594 C 55.042969 228.863281 55.875 231.023438 56.761719 233.164062 C 57.648438 235.304688 58.585938 237.417969 59.574219 239.511719 C 60.566406 241.605469 61.605469 243.675781 62.699219 245.71875 C 63.789062 247.757812 64.933594 249.773438 66.121094 251.761719 C 67.3125 253.746094 68.550781 255.703125 69.839844 257.628906 C 71.125 259.554688 72.457031 261.445312 73.835938 263.308594 C 75.21875 265.167969 76.640625 266.992188 78.109375 268.78125 C 79.582031 270.574219 81.09375 272.324219 82.648438 274.042969 C 84.203125 275.757812 85.800781 277.433594 87.4375 279.074219 C 89.074219 280.710938 90.75 282.304688 92.46875 283.863281 C 94.183594 285.417969 95.9375 286.929688 97.726562 288.398438 C 99.515625 289.867188 101.34375 291.292969 103.203125 292.671875 C 105.0625 294.050781 106.957031 295.382812 108.878906 296.671875 C 110.804688 297.957031 112.761719 299.195312 114.75 300.386719 C 116.734375 301.578125 118.75 302.71875 120.792969 303.808594 C 122.835938 304.902344 124.902344 305.941406 126.996094 306.933594 C 129.089844 307.921875 131.207031 308.863281 133.347656 309.746094 C 135.484375 310.632812 137.644531 311.46875 139.828125 312.246094 C 142.007812 313.027344 144.207031 313.753906 146.421875 314.425781 C 148.636719 315.097656 150.867188 315.714844 153.117188 316.277344 C 155.363281 316.839844 157.621094 317.347656 159.890625 317.800781 C 162.164062 318.253906 164.445312 318.648438 166.734375 318.988281 C 169.027344 319.328125 171.324219 319.609375 173.628906 319.839844 C 175.933594 320.066406 178.242188 320.234375 180.554688 320.347656 C 182.867188 320.460938 185.183594 320.519531 187.5 320.519531 C 189.816406 320.519531 192.128906 320.460938 194.441406 320.347656 C 196.757812 320.234375 199.066406 320.066406 201.371094 319.839844 C 203.675781 319.609375 205.972656 319.328125 208.261719 318.988281 C 210.554688 318.648438 212.835938 318.253906 215.105469 317.800781 C 217.378906 317.347656 219.636719 316.839844 221.882812 316.277344 C 224.128906 315.714844 226.363281 315.097656 228.578125 314.425781 C 230.792969 313.753906 232.992188 313.027344 235.171875 312.246094 C 237.351562 311.46875 239.511719 310.632812 241.652344 309.746094 C 243.792969 308.863281 245.910156 307.921875 248.003906 306.933594 C 250.097656 305.941406 252.164062 304.902344 254.207031 303.808594 C 256.25 302.71875 258.261719 301.578125 260.25 300.386719 C 262.238281 299.195312 264.191406 297.957031 266.117188 296.671875 C 268.042969 295.382812 269.9375 294.050781 271.796875 292.671875 C 273.65625 291.292969 275.480469 289.867188 277.273438 288.398438 C 279.0625 286.929688 280.816406 285.417969 282.53125 283.863281 C 284.246094 282.304688 285.925781 280.710938 287.5625 279.074219 C 289.199219 277.433594 290.796875 275.757812 292.351562 274.042969 C 293.90625 272.324219 295.417969 270.574219 296.886719 268.78125 C 298.355469 266.992188 299.78125 265.167969 301.160156 263.308594 C 302.539062 261.445312 303.875 259.554688 305.160156 257.628906 C 306.445312 255.703125 307.6875 253.746094 308.875 251.761719 C 310.066406 249.773438 311.207031 247.757812 312.300781 245.71875 C 313.390625 243.675781 314.433594 241.605469 315.421875 239.511719 C 316.414062 237.417969 317.351562 235.304688 318.238281 233.164062 C 319.125 231.023438 319.957031 228.863281 320.738281 226.683594 C 321.515625 224.503906 322.242188 222.304688 322.914062 220.085938 C 323.589844 217.871094 324.207031 215.640625 324.769531 213.394531 C 325.332031 211.148438 325.839844 208.886719 326.289062 206.617188 C 326.742188 204.34375 327.136719 202.0625 327.476562 199.773438 C 327.816406 197.484375 328.101562 195.183594 328.328125 192.878906 C 328.554688 190.574219 328.726562 188.265625 328.839844 185.953125 C 328.953125 183.640625 329.007812 181.324219 329.007812 179.007812 C 329.007812 176.695312 328.945312 174.382812 328.832031 172.070312 C 328.714844 169.757812 328.542969 167.449219 328.3125 165.144531 C 328.082031 162.839844 327.796875 160.542969 327.457031 158.253906 C 327.113281 155.964844 326.714844 153.683594 326.261719 151.414062 C 325.808594 149.144531 325.300781 146.886719 324.734375 144.640625 C 324.171875 142.394531 323.550781 140.164062 322.878906 137.949219 C 322.207031 135.734375 321.476562 133.539062 320.695312 131.359375 C 319.914062 129.179688 319.082031 127.019531 318.191406 124.882812 C 317.304688 122.742188 316.367188 120.628906 315.375 118.535156 C 314.386719 116.441406 313.34375 114.375 312.25 112.335938 C 311.160156 110.292969 310.015625 108.28125 308.828125 106.296875 C 307.636719 104.308594 306.398438 102.355469 305.109375 100.429688 C 303.824219 98.503906 302.488281 96.613281 301.109375 94.753906 C 299.730469 92.894531 298.304688 91.070312 296.835938 89.28125 C 295.367188 87.492188 293.855469 85.738281 292.300781 84.023438 C 290.746094 82.308594 289.152344 80.632812 287.515625 78.996094 C 285.875 77.359375 284.199219 75.761719 282.484375 74.207031 C 280.769531 72.652344 279.015625 71.140625 277.226562 69.671875 C 275.4375 68.203125 273.613281 66.777344 271.753906 65.398438 C 269.894531 64.019531 268.003906 62.6875 266.078125 61.398438 C 264.15625 60.113281 262.199219 58.875 260.214844 57.683594 C 258.230469 56.492188 256.214844 55.351562 254.175781 54.257812 C 252.132812 53.164062 250.066406 52.125 247.972656 51.132812 C 245.882812 50.140625 243.765625 49.203125 241.628906 48.316406 C 239.488281 47.429688 237.328125 46.59375 235.152344 45.8125 C 232.972656 45.03125 230.773438 44.304688 228.558594 43.628906 C 226.34375 42.957031 224.113281 42.335938 221.867188 41.773438 C 219.625 41.207031 217.367188 40.699219 215.09375 40.246094 C 212.824219 39.792969 210.542969 39.394531 208.253906 39.054688 C 205.964844 38.710938 203.667969 38.425781 201.363281 38.195312 C 199.0625 37.96875 196.753906 37.792969 194.441406 37.679688 C 192.128906 37.5625 189.816406 37.503906 187.5 37.5 Z M 187.5 308.726562 C 185.375 308.726562 183.253906 308.675781 181.132812 308.570312 C 179.015625 308.464844 176.898438 308.308594 174.785156 308.101562 C 172.671875 307.894531 170.566406 307.632812 168.464844 307.324219 C 166.367188 307.011719 164.273438 306.648438 162.191406 306.234375 C 160.109375 305.820312 158.039062 305.355469 155.980469 304.839844 C 153.921875 304.324219 151.875 303.757812 149.84375 303.140625 C 147.8125 302.523438 145.796875 301.859375 143.800781 301.144531 C 141.800781 300.429688 139.820312 299.664062 137.859375 298.851562 C 135.898438 298.039062 133.957031 297.179688 132.039062 296.273438 C 130.117188 295.363281 128.222656 294.410156 126.351562 293.410156 C 124.480469 292.410156 122.632812 291.363281 120.8125 290.273438 C 118.992188 289.179688 117.199219 288.046875 115.433594 286.867188 C 113.667969 285.6875 111.933594 284.464844 110.226562 283.199219 C 108.523438 281.933594 106.847656 280.628906 105.207031 279.28125 C 103.566406 277.9375 101.960938 276.550781 100.386719 275.125 C 98.8125 273.699219 97.277344 272.234375 95.777344 270.734375 C 94.273438 269.234375 92.8125 267.695312 91.386719 266.121094 C 89.960938 264.550781 88.574219 262.941406 87.226562 261.300781 C 85.878906 259.660156 84.574219 257.988281 83.308594 256.28125 C 82.046875 254.578125 80.824219 252.84375 79.644531 251.078125 C 78.464844 249.3125 77.328125 247.519531 76.238281 245.699219 C 75.144531 243.875 74.101562 242.03125 73.097656 240.15625 C 72.097656 238.285156 71.144531 236.390625 70.238281 234.472656 C 69.328125 232.550781 68.46875 230.613281 67.65625 228.648438 C 66.84375 226.6875 66.082031 224.710938 65.363281 222.710938 C 64.648438 220.710938 63.984375 218.695312 63.367188 216.664062 C 62.75 214.632812 62.183594 212.585938 61.667969 210.527344 C 61.152344 208.46875 60.6875 206.398438 60.273438 204.316406 C 59.859375 202.234375 59.496094 200.144531 59.1875 198.042969 C 58.875 195.941406 58.613281 193.835938 58.40625 191.722656 C 58.199219 189.613281 58.042969 187.496094 57.9375 185.375 C 57.835938 183.253906 57.78125 181.132812 57.78125 179.007812 C 57.78125 176.886719 57.835938 174.765625 57.9375 172.644531 C 58.042969 170.523438 58.199219 168.40625 58.40625 166.296875 C 58.613281 164.183594 58.875 162.078125 59.1875 159.976562 C 59.496094 157.875 59.859375 155.785156 60.273438 153.703125 C 60.6875 151.621094 61.152344 149.550781 61.667969 147.492188 C 62.183594 145.433594 62.75 143.386719 63.367188 141.355469 C 63.984375 139.324219 64.648438 137.308594 65.363281 135.308594 C 66.082031 133.308594 66.84375 131.332031 67.65625 129.367188 C 68.46875 127.40625 69.328125 125.46875 70.238281 123.546875 C 71.144531 121.628906 72.097656 119.734375 73.097656 117.863281 C 74.101562 115.988281 75.144531 114.144531 76.238281 112.320312 C 77.328125 110.5 78.464844 108.707031 79.644531 106.941406 C 80.824219 105.175781 82.046875 103.441406 83.308594 101.738281 C 84.574219 100.03125 85.878906 98.359375 87.226562 96.71875 C 88.574219 95.078125 89.960938 93.46875 91.386719 91.898438 C 92.8125 90.324219 94.273438 88.785156 95.777344 87.285156 C 97.277344 85.785156 98.8125 84.320312 100.386719 82.894531 C 101.960938 81.46875 103.566406 80.082031 105.207031 78.738281 C 106.847656 77.390625 108.523438 76.085938 110.226562 74.820312 C 111.933594 73.554688 113.667969 72.332031 115.433594 71.152344 C 117.199219 69.972656 118.992188 68.839844 120.8125 67.746094 C 122.632812 66.65625 124.480469 65.609375 126.351562 64.609375 C 128.222656 63.609375 130.117188 62.65625 132.039062 61.746094 C 133.957031 60.839844 135.898438 59.980469 137.859375 59.167969 C 139.820312 58.355469 141.800781 57.589844 143.800781 56.875 C 145.796875 56.160156 147.8125 55.496094 149.84375 54.878906 C 151.875 54.261719 153.921875 53.695312 155.980469 53.179688 C 158.039062 52.664062 160.109375 52.199219 162.191406 51.785156 C 164.273438 51.371094 166.367188 51.007812 168.464844 50.695312 C 170.566406 50.386719 172.671875 50.125 174.785156 49.917969 C 176.898438 49.710938 179.015625 49.554688 181.132812 49.449219 C 183.253906 49.34375 185.375 49.292969 187.5 49.292969 C 189.621094 49.292969 191.742188 49.34375 193.863281 49.449219 C 195.984375 49.554688 198.101562 49.710938 200.214844 49.917969 C 202.328125 50.125 204.433594 50.386719 206.53125 50.695312 C 208.632812 51.007812 210.722656 51.371094 212.804688 51.785156 C 214.886719 52.199219 216.957031 52.664062 219.019531 53.179688 C 221.078125 53.695312 223.121094 54.261719 225.15625 54.878906 C 227.1875 55.496094 229.199219 56.160156 231.199219 56.875 C 233.199219 57.589844 235.179688 58.355469 237.140625 59.167969 C 239.101562 59.980469 241.042969 60.839844 242.960938 61.746094 C 244.878906 62.65625 246.777344 63.609375 248.648438 64.609375 C 250.519531 65.609375 252.367188 66.65625 254.1875 67.746094 C 256.007812 68.839844 257.800781 69.972656 259.566406 71.152344 C 261.332031 72.332031 263.066406 73.554688 264.773438 74.820312 C 266.476562 76.085938 268.148438 77.390625 269.792969 78.738281 C 271.433594 80.082031 273.039062 81.46875 274.613281 82.894531 C 276.183594 84.320312 277.722656 85.785156 279.222656 87.285156 C 280.722656 88.785156 282.1875 90.324219 283.613281 91.898438 C 285.039062 93.46875 286.425781 95.078125 287.773438 96.71875 C 289.117188 98.359375 290.425781 100.03125 291.6875 101.738281 C 292.953125 103.441406 294.175781 105.175781 295.355469 106.941406 C 296.535156 108.707031 297.671875 110.5 298.761719 112.320312 C 299.851562 114.144531 300.898438 115.988281 301.898438 117.863281 C 302.902344 119.734375 303.855469 121.628906 304.761719 123.546875 C 305.671875 125.46875 306.53125 127.40625 307.34375 129.367188 C 308.15625 131.332031 308.917969 133.308594 309.632812 135.308594 C 310.347656 137.308594 311.015625 139.324219 311.632812 141.355469 C 312.246094 143.386719 312.8125 145.433594 313.328125 147.492188 C 313.84375 149.550781 314.308594 151.621094 314.722656 153.703125 C 315.136719 155.785156 315.5 157.875 315.8125 159.976562 C 316.125 162.078125 316.382812 164.183594 316.59375 166.296875 C 316.800781 168.40625 316.957031 170.523438 317.058594 172.644531 C 317.164062 174.765625 317.214844 176.886719 317.214844 179.007812 C 317.214844 181.132812 317.160156 183.253906 317.054688 185.371094 C 316.945312 187.492188 316.789062 189.609375 316.578125 191.71875 C 316.367188 193.832031 316.105469 195.9375 315.792969 198.035156 C 315.480469 200.136719 315.117188 202.226562 314.699219 204.304688 C 314.285156 206.386719 313.816406 208.457031 313.300781 210.515625 C 312.78125 212.574219 312.214844 214.617188 311.597656 216.648438 C 310.980469 218.679688 310.3125 220.691406 309.597656 222.691406 C 308.882812 224.6875 308.117188 226.667969 307.304688 228.628906 C 306.488281 230.585938 305.628906 232.527344 304.722656 234.445312 C 303.8125 236.363281 302.859375 238.257812 301.855469 240.128906 C 300.855469 242 299.808594 243.847656 298.71875 245.664062 C 297.625 247.484375 296.488281 249.277344 295.308594 251.042969 C 294.128906 252.804688 292.910156 254.539062 291.644531 256.246094 C 290.378906 257.949219 289.074219 259.621094 287.726562 261.261719 C 286.378906 262.902344 284.996094 264.507812 283.570312 266.082031 C 282.144531 267.652344 280.679688 269.191406 279.179688 270.691406 C 277.679688 272.191406 276.144531 273.65625 274.570312 275.078125 C 273 276.503906 271.390625 277.890625 269.75 279.238281 C 268.113281 280.585938 266.4375 281.890625 264.734375 283.15625 C 263.03125 284.417969 261.296875 285.640625 259.53125 286.820312 C 257.765625 288 255.976562 289.136719 254.15625 290.226562 C 252.335938 291.320312 250.488281 292.367188 248.617188 293.367188 C 246.746094 294.367188 244.851562 295.324219 242.933594 296.230469 C 241.015625 297.140625 239.078125 298 237.117188 298.8125 C 235.15625 299.625 233.179688 300.390625 231.179688 301.109375 C 229.183594 301.824219 227.167969 302.492188 225.136719 303.109375 C 223.109375 303.726562 221.0625 304.292969 219.003906 304.8125 C 216.945312 305.328125 214.878906 305.792969 212.796875 306.210938 C 210.714844 306.625 208.625 306.992188 206.527344 307.304688 C 204.425781 307.617188 202.320312 307.878906 200.210938 308.089844 C 198.097656 308.300781 195.980469 308.457031 193.863281 308.5625 C 191.742188 308.671875 189.621094 308.726562 187.5 308.726562 Z M 187.5 308.726562 " fill-opacity="1" fill-rule="nonzero"/></g></svg>