<svg xmlns="http://www.w3.org/2000/svg" xmlns:xlink="http://www.w3.org/1999/xlink" width="500" zoomAndPan="magnify" viewBox="0 0 375 374.999991" height="500" preserveAspectRatio="xMidYMid meet" version="1.0"><defs><clipPath id="f06bc248f3"><path d="M 45.988281 39 L 328.738281 39 L 328.738281 321.75 L 45.988281 321.75 Z M 45.988281 39 " clip-rule="nonzero"/></clipPath><clipPath id="b88b569295"><path d="M 78 79 L 272.976562 79 L 272.976562 274.875 L 78 274.875 Z M 78 79 " clip-rule="nonzero"/></clipPath></defs><g clip-path="url(#f06bc248f3)"><path fill="#ffffff" d="M 187.5 322.019531 C 109.320312 322.019531 45.988281 258.253906 45.988281 180.507812 C 45.988281 102.765625 109.320312 39 187.5 39 C 265.679688 39 329.007812 102.328125 329.007812 180.507812 C 329.007812 258.691406 265.242188 322.019531 187.5 322.019531 Z M 187.5 47.734375 C 114.125 47.734375 54.726562 107.132812 54.726562 180.507812 C 54.726562 253.886719 114.125 313.285156 187.5 313.285156 C 260.875 313.285156 320.273438 253.886719 320.273438 180.507812 C 320.273438 107.132812 260.4375 47.734375 187.5 47.734375 Z M 187.5 47.734375 " fill-opacity="1" fill-rule="nonzero"/></g><g clip-path="url(#b88b569295)"><path fill="#ffffff" d="M 217.824219 274.933594 C 217.179688 274.933594 216.542969 274.871094 215.910156 274.746094 C 215.28125 274.621094 214.667969 274.433594 214.070312 274.1875 C 213.476562 273.941406 212.914062 273.640625 212.378906 273.28125 C 211.839844 272.925781 211.347656 272.519531 210.890625 272.0625 C 210.4375 271.609375 210.03125 271.113281 209.671875 270.578125 C 209.3125 270.042969 209.011719 269.476562 208.765625 268.882812 C 208.519531 268.289062 208.332031 267.675781 208.207031 267.042969 C 208.082031 266.410156 208.019531 265.773438 208.019531 265.128906 L 208.019531 239.640625 C 208.171875 238.171875 208.171875 236.707031 208.015625 235.242188 C 207.859375 233.773438 207.554688 232.339844 207.097656 230.941406 C 206.640625 229.539062 206.046875 228.199219 205.308594 226.921875 C 204.574219 225.644531 203.710938 224.460938 202.726562 223.363281 C 202.113281 222.703125 201.605469 221.96875 201.195312 221.167969 C 200.789062 220.363281 200.496094 219.523438 200.320312 218.640625 C 200.144531 217.757812 200.089844 216.867188 200.15625 215.96875 C 200.226562 215.070312 200.414062 214.199219 200.722656 213.351562 C 201.03125 212.507812 201.449219 211.71875 201.976562 210.988281 C 202.503906 210.257812 203.117188 209.613281 203.820312 209.050781 C 204.527344 208.488281 205.292969 208.035156 206.121094 207.683594 C 206.953125 207.332031 207.8125 207.101562 208.707031 206.988281 C 232.628906 204.148438 254.6875 196.5 254.6875 155.027344 C 254.691406 151.152344 254.136719 147.363281 253.015625 143.65625 C 251.898438 139.949219 250.265625 136.484375 248.121094 133.261719 C 247.140625 131.789062 246.3125 130.238281 245.636719 128.605469 C 244.960938 126.976562 244.449219 125.292969 244.105469 123.558594 C 243.761719 121.828125 243.589844 120.078125 243.585938 118.3125 C 243.585938 116.546875 243.757812 114.796875 244.101562 113.0625 C 244.992188 108.453125 244.992188 103.847656 244.101562 99.238281 C 236.714844 101.734375 229.882812 105.296875 223.609375 109.925781 C 222.414062 110.773438 221.097656 111.324219 219.65625 111.582031 C 218.214844 111.839844 216.785156 111.777344 215.371094 111.394531 C 210.96875 110.152344 206.503906 109.214844 201.972656 108.589844 C 197.441406 107.960938 192.886719 107.644531 188.3125 107.644531 C 183.738281 107.644531 179.183594 107.960938 174.652344 108.589844 C 170.121094 109.214844 165.65625 110.152344 161.253906 111.394531 C 159.839844 111.777344 158.410156 111.839844 156.96875 111.582031 C 155.527344 111.324219 154.210938 110.773438 153.015625 109.925781 C 146.699219 105.242188 139.804688 101.679688 132.328125 99.238281 C 131.386719 103.847656 131.386719 108.453125 132.328125 113.0625 C 132.648438 114.816406 132.796875 116.585938 132.773438 118.371094 C 132.75 120.15625 132.558594 121.921875 132.199219 123.667969 C 131.839844 125.414062 131.3125 127.113281 130.625 128.757812 C 129.9375 130.40625 129.101562 131.972656 128.113281 133.457031 C 125.976562 136.703125 124.351562 140.1875 123.230469 143.910156 C 122.113281 147.628906 121.550781 151.433594 121.542969 155.320312 C 121.542969 193.460938 139.976562 203.65625 167.625 207.1875 C 168.53125 207.296875 169.402344 207.53125 170.242188 207.886719 C 171.082031 208.242188 171.855469 208.707031 172.566406 209.277344 C 173.277344 209.847656 173.894531 210.507812 174.421875 211.25 C 174.945312 211.996094 175.363281 212.796875 175.664062 213.65625 C 175.949219 214.492188 176.121094 215.347656 176.171875 216.226562 C 176.226562 217.109375 176.164062 217.980469 175.980469 218.84375 C 175.800781 219.703125 175.507812 220.527344 175.105469 221.3125 C 174.703125 222.097656 174.203125 222.8125 173.605469 223.460938 C 172.652344 224.480469 171.8125 225.585938 171.089844 226.78125 C 170.367188 227.972656 169.769531 229.226562 169.308594 230.542969 C 168.84375 231.859375 168.519531 233.210938 168.335938 234.59375 C 168.148438 235.976562 168.109375 237.363281 168.214844 238.757812 L 168.214844 265.128906 C 168.214844 265.773438 168.152344 266.410156 168.023438 267.042969 C 167.898438 267.675781 167.714844 268.289062 167.46875 268.882812 C 167.222656 269.476562 166.917969 270.042969 166.5625 270.578125 C 166.203125 271.113281 165.796875 271.609375 165.339844 272.0625 C 164.886719 272.519531 164.390625 272.925781 163.855469 273.28125 C 163.320312 273.640625 162.753906 273.941406 162.160156 274.1875 C 161.566406 274.433594 160.953125 274.621094 160.320312 274.746094 C 159.691406 274.871094 159.050781 274.933594 158.410156 274.933594 C 157.765625 274.933594 157.128906 274.871094 156.496094 274.746094 C 155.863281 274.621094 155.25 274.433594 154.65625 274.1875 C 154.0625 273.941406 153.496094 273.640625 152.960938 273.28125 C 152.425781 272.925781 151.929688 272.519531 151.476562 272.0625 C 151.019531 271.609375 150.613281 271.113281 150.257812 270.578125 C 149.898438 270.042969 149.597656 269.476562 149.351562 268.882812 C 149.105469 268.289062 148.917969 267.675781 148.792969 267.042969 C 148.667969 266.410156 148.605469 265.773438 148.605469 265.128906 L 148.605469 259.542969 C 146.203125 259.816406 143.796875 259.945312 141.382812 259.925781 C 138.96875 259.90625 136.5625 259.734375 134.167969 259.417969 C 131.773438 259.101562 129.40625 258.640625 127.070312 258.03125 C 124.734375 257.421875 122.441406 256.675781 120.195312 255.785156 C 117.953125 254.894531 115.769531 253.867188 113.652344 252.710938 C 111.53125 251.550781 109.492188 250.265625 107.53125 248.855469 C 105.570312 247.445312 103.703125 245.917969 101.929688 244.277344 C 100.160156 242.640625 98.492188 240.894531 96.933594 239.050781 C 93.691406 235.453125 89.898438 232.578125 85.5625 230.421875 C 84.9375 230.261719 84.332031 230.042969 83.753906 229.761719 C 83.171875 229.484375 82.621094 229.148438 82.109375 228.761719 C 81.59375 228.375 81.117188 227.9375 80.6875 227.457031 C 80.257812 226.976562 79.878906 226.460938 79.550781 225.90625 C 79.222656 225.347656 78.953125 224.765625 78.742188 224.15625 C 78.527344 223.550781 78.375 222.925781 78.285156 222.285156 C 78.195312 221.648438 78.167969 221.007812 78.203125 220.363281 C 78.238281 219.71875 78.339844 219.085938 78.5 218.460938 C 78.660156 217.835938 78.878906 217.234375 79.160156 216.652344 C 79.441406 216.070312 79.773438 215.523438 80.160156 215.007812 C 80.550781 214.492188 80.984375 214.019531 81.464844 213.589844 C 81.945312 213.160156 82.464844 212.78125 83.019531 212.453125 C 83.574219 212.125 84.15625 211.855469 84.765625 211.640625 C 85.375 211.429688 86 211.277344 86.636719 211.1875 C 87.277344 211.097656 87.917969 211.070312 88.5625 211.105469 C 89.203125 211.140625 89.839844 211.242188 90.464844 211.402344 C 94.234375 212.777344 97.78125 214.589844 101.097656 216.847656 C 104.417969 219.105469 107.410156 221.734375 110.074219 224.734375 C 119.878906 234.539062 129.683594 243.167969 148.308594 239.640625 C 147.980469 234.316406 148.730469 229.152344 150.566406 224.148438 C 130.367188 219.050781 101.542969 204.539062 101.542969 155.515625 C 101.53125 149.710938 102.359375 144.027344 104.027344 138.464844 C 105.699219 132.90625 108.136719 127.707031 111.347656 122.867188 C 111.945312 121.972656 112.351562 121.003906 112.570312 119.949219 C 112.792969 118.898438 112.808594 117.847656 112.621094 116.789062 C 111.632812 111.496094 111.410156 106.171875 111.960938 100.816406 C 112.511719 95.460938 113.8125 90.296875 115.859375 85.316406 C 116.421875 83.972656 117.242188 82.8125 118.324219 81.832031 C 119.402344 80.855469 120.640625 80.152344 122.035156 79.726562 C 125.367188 78.746094 137.328125 76.785156 159.976562 91.492188 C 169.144531 89.285156 178.441406 88.183594 187.871094 88.183594 C 197.300781 88.183594 206.597656 89.285156 215.765625 91.492188 C 238.414062 76.785156 250.375 78.648438 253.609375 79.726562 C 255.003906 80.152344 256.242188 80.855469 257.320312 81.832031 C 258.402344 82.8125 259.222656 83.972656 259.789062 85.316406 C 261.839844 90.3125 263.136719 95.496094 263.6875 100.867188 C 264.238281 106.238281 264.015625 111.578125 263.023438 116.886719 C 262.820312 117.851562 262.8125 118.820312 263 119.789062 C 263.1875 120.757812 263.554688 121.652344 264.101562 122.476562 C 267.320312 127.328125 269.765625 132.542969 271.433594 138.121094 C 273.105469 143.699219 273.929688 149.398438 273.90625 155.222656 C 273.90625 204.929688 245.277344 219.34375 224.882812 223.855469 C 226.699219 229.167969 227.417969 234.625 227.039062 240.226562 L 227.039062 265.128906 C 227.042969 265.75 226.984375 266.363281 226.867188 266.972656 C 226.753906 267.582031 226.582031 268.175781 226.355469 268.75 C 226.125 269.328125 225.847656 269.878906 225.515625 270.402344 C 225.183594 270.925781 224.804688 271.410156 224.378906 271.863281 C 223.957031 272.316406 223.492188 272.722656 222.992188 273.085938 C 222.488281 273.449219 221.957031 273.761719 221.394531 274.027344 C 220.835938 274.289062 220.253906 274.496094 219.652344 274.648438 C 219.050781 274.804688 218.441406 274.898438 217.824219 274.933594 Z M 217.824219 274.933594 " fill-opacity="1" fill-rule="nonzero"/></g></svg>