<svg xmlns="http://www.w3.org/2000/svg" xmlns:xlink="http://www.w3.org/1999/xlink" width="500" zoomAndPan="magnify" viewBox="0 0 375 374.999991" height="500" preserveAspectRatio="xMidYMid meet" version="1.0"><defs><g/><clipPath id="6f20a8eb5f"><path d="M 233.175781 164.03125 L 374.925781 164.03125 L 374.925781 252.53125 L 233.175781 252.53125 Z M 233.175781 164.03125 " clip-rule="nonzero"/></clipPath></defs><rect x="-37.5" width="450" fill="#ffffff" y="-37.499999" height="449.999989" fill-opacity="1"/><rect x="-37.5" width="450" fill="#ffffff" y="-37.499999" height="449.999989" fill-opacity="1"/><g clip-path="url(#6f20a8eb5f)"><path fill="#81568d" d="M 345.9375 172.597656 C 348.164062 174.457031 350.480469 176.699219 352.886719 179.320312 L 352.882812 179.320312 C 357.863281 185.929688 358.738281 192.390625 355.511719 198.699219 C 354.507812 189.0625 351.0625 180.679688 345.179688 173.546875 L 345.167969 173.546875 C 345.167969 173.394531 345.386719 173.109375 345.820312 172.695312 C 345.855469 172.664062 345.886719 172.628906 345.925781 172.597656 Z M 342.078125 200.472656 C 342.410156 200.585938 342.75 200.699219 343.09375 200.816406 C 347.34375 202.433594 349.6875 203.828125 350.117188 205.003906 L 350.105469 205.003906 C 349.78125 205.253906 349.347656 205.371094 348.800781 205.363281 C 347.90625 205.347656 346.710938 204.988281 345.21875 204.277344 L 345.214844 204.277344 C 344.445312 203.792969 343.777344 203.167969 343.203125 202.398438 L 343.199219 202.398438 C 342.804688 201.714844 342.425781 201.074219 342.0625 200.472656 Z M 357.5625 203.320312 C 358.207031 203.328125 358.644531 203.433594 358.871094 203.625 C 359.304688 203.992188 358.910156 204.894531 357.691406 206.332031 L 357.683594 206.332031 L 353.175781 210.136719 C 353.871094 208.636719 354.5 207.066406 355.0625 205.433594 L 355.050781 205.433594 C 355.632812 204.492188 356.394531 203.785156 357.332031 203.320312 L 357.320312 203.320312 C 357.402344 203.316406 357.484375 203.316406 357.5625 203.320312 Z M 329.757812 210.296875 C 332.441406 210.957031 335.492188 211.320312 338.910156 211.375 C 341.851562 211.425781 345.070312 211.25 348.558594 210.847656 L 348.570312 210.847656 C 348.367188 210.945312 348.121094 211.050781 347.832031 211.171875 L 347.761719 211.207031 C 347.277344 211.53125 342.988281 213.171875 334.894531 216.136719 C 332.265625 217.070312 330.074219 217.675781 328.320312 217.960938 C 327.234375 216.132812 326.945312 214.117188 327.453125 211.914062 L 327.445312 211.914062 C 327.859375 210.90625 328.625 210.367188 329.746094 210.292969 Z M 350.503906 213.476562 C 348.886719 216.242188 347 218.738281 344.84375 220.957031 C 343.238281 222.457031 341.261719 223.21875 338.910156 223.25 L 350.492188 213.476562 Z M 286.714844 215.203125 C 289.460938 215.25 291.714844 216.015625 293.476562 217.503906 L 293.472656 217.503906 C 293.621094 217.65625 293.761719 217.804688 293.890625 217.957031 C 295.875 220.28125 295.339844 222.746094 292.28125 225.359375 L 292.277344 225.359375 C 289.460938 227.460938 285.464844 229.164062 280.289062 230.464844 L 280.238281 230.480469 C 278.746094 231.070312 273.710938 231.796875 265.140625 232.671875 C 266.203125 224.722656 271.511719 219.148438 281.0625 215.945312 L 281.058594 215.945312 C 283.132812 215.421875 285.015625 215.175781 286.714844 215.203125 Z M 355.042969 164.058594 C 354.074219 164.042969 353.132812 164.285156 352.21875 164.789062 L 352.203125 164.789062 C 351.210938 165.1875 350.085938 166.730469 348.828125 169.421875 L 348.816406 169.421875 C 347.59375 170.230469 346.625 170.929688 345.914062 171.515625 C 340.621094 167.222656 335.789062 165.042969 331.417969 164.96875 C 330.148438 164.949219 328.921875 165.105469 327.730469 165.4375 L 327.675781 165.457031 C 325.601562 166.382812 324.496094 167.628906 324.355469 169.199219 C 324.351562 169.257812 324.355469 169.316406 324.375 169.371094 L 328.574219 181.554688 L 328.558594 181.554688 C 327.457031 183.785156 326.671875 185.585938 326.210938 186.957031 C 325.523438 188.988281 325.546875 190.191406 326.285156 190.566406 L 326.273438 190.566406 C 326.660156 191.191406 327.34375 191.699219 328.320312 192.09375 L 328.398438 192.117188 C 333.488281 193.074219 336.316406 193.9375 336.878906 194.703125 C 336.941406 194.785156 337.03125 194.84375 337.132812 194.863281 L 337.128906 194.863281 C 337.5625 195.007812 338.589844 196.382812 340.203125 198.984375 L 340.195312 198.984375 C 333.371094 196.769531 328.683594 195.640625 326.136719 195.601562 C 325.414062 195.589844 324.863281 195.664062 324.484375 195.824219 L 324.472656 195.824219 C 324.148438 195.886719 323.828125 195.949219 323.519531 196.019531 C 315.710938 197.75 312.570312 202.046875 314.089844 208.90625 L 314.113281 208.976562 C 316.671875 215.152344 320.484375 218.472656 325.550781 218.933594 C 325.730469 218.949219 325.921875 218.960938 326.117188 218.964844 C 326.648438 218.972656 327.238281 218.933594 327.886719 218.851562 L 327.902344 218.851562 C 328.773438 220.136719 330.019531 221.332031 331.640625 222.433594 L 331.71875 222.472656 C 333.550781 223.222656 335.257812 223.710938 336.832031 223.9375 L 336.820312 223.9375 L 319.359375 238.671875 L 319.351562 238.671875 C 308.269531 245.273438 297.171875 248.484375 286.066406 248.296875 C 285.394531 248.289062 284.722656 248.265625 284.050781 248.226562 L 284.039062 248.226562 C 272.34375 247.058594 265.980469 242.835938 264.949219 235.558594 L 264.941406 235.558594 C 264.949219 234.859375 264.984375 234.175781 265.046875 233.507812 L 265.035156 233.507812 C 273.730469 232.625 278.882812 231.875 280.496094 231.261719 L 280.488281 231.261719 C 285.785156 229.929688 289.886719 228.175781 292.792969 226 L 292.816406 225.984375 C 296.289062 223.015625 296.855469 220.164062 294.515625 217.421875 C 294.367188 217.246094 294.203125 217.074219 294.03125 216.898438 L 294.007812 216.878906 C 292.097656 215.261719 289.671875 214.429688 286.734375 214.378906 C 284.960938 214.351562 283.003906 214.605469 280.855469 215.144531 L 280.828125 215.15625 C 270.84375 218.496094 265.335938 224.363281 264.300781 232.757812 L 264.289062 232.757812 C 262.171875 232.96875 259.851562 233.1875 257.328125 233.414062 L 257.296875 233.417969 C 253.25 234.105469 250.3125 234.902344 248.484375 235.804688 C 242.023438 238.859375 236.980469 244.292969 233.347656 252.09375 C 233.25 252.300781 233.339844 252.546875 233.546875 252.640625 C 233.601562 252.667969 233.65625 252.679688 233.714844 252.679688 C 233.871094 252.683594 234.023438 252.59375 234.09375 252.441406 C 237.644531 244.816406 242.558594 239.515625 248.839844 236.546875 L 248.847656 236.542969 C 250.601562 235.675781 253.453125 234.90625 257.410156 234.234375 L 257.402344 234.234375 C 259.859375 234.011719 262.125 233.796875 264.199219 233.589844 L 264.210938 233.589844 C 264.15625 234.230469 264.125 234.882812 264.121094 235.550781 L 264.125 235.613281 C 265.1875 243.351562 271.800781 247.832031 283.957031 249.046875 L 283.976562 249.046875 C 284.667969 249.085938 285.363281 249.109375 286.054688 249.121094 C 297.335938 249.308594 308.597656 246.046875 319.835938 239.335938 L 319.890625 239.296875 L 337.957031 224.054688 L 337.96875 224.054688 C 338.171875 224.066406 338.371094 224.074219 338.570312 224.078125 C 341.285156 224.121094 343.570312 223.277344 345.421875 221.546875 L 345.4375 221.53125 C 348.121094 218.765625 350.394531 215.585938 352.261719 211.992188 L 352.25 211.992188 L 358.269531 206.910156 L 358.320312 206.863281 C 359.894531 205.007812 360.253906 203.71875 359.402344 202.996094 C 359.027344 202.679688 358.40625 202.511719 357.550781 202.496094 C 357.445312 202.496094 357.335938 202.496094 357.222656 202.5 C 357.167969 202.5 357.109375 202.515625 357.058594 202.539062 C 355.9375 203.074219 355.035156 203.894531 354.351562 205 L 354.3125 205.082031 C 353.539062 207.339844 352.636719 209.472656 351.605469 211.46875 L 351.59375 211.46875 L 337.6875 223.203125 C 336 223.058594 334.136719 222.570312 332.097656 221.738281 L 332.085938 221.738281 C 330.703125 220.800781 329.613281 219.789062 328.820312 218.707031 L 328.804688 218.707031 C 330.558594 218.394531 332.679688 217.796875 335.171875 216.910156 L 335.175781 216.90625 C 343.074219 214.019531 347.398438 212.359375 348.152344 211.929688 L 348.144531 211.929688 C 349.148438 211.515625 349.753906 211.164062 349.957031 210.875 C 349.984375 210.832031 350.011719 210.785156 350.03125 210.742188 C 350.15625 210.4375 350.074219 210.195312 349.777344 210.011719 L 349.777344 210.015625 C 349.738281 209.988281 349.691406 209.964844 349.640625 209.941406 C 349.589844 209.921875 349.539062 209.910156 349.488281 209.910156 C 349.46875 209.910156 349.449219 209.910156 349.429688 209.914062 C 345.601562 210.394531 342.097656 210.605469 338.921875 210.554688 C 335.542969 210.496094 332.535156 210.140625 329.894531 209.480469 C 329.867188 209.472656 329.835938 209.46875 329.804688 209.46875 C 329.792969 209.46875 329.785156 209.46875 329.777344 209.46875 C 328.265625 209.539062 327.234375 210.25 326.683594 211.605469 L 326.664062 211.664062 C 326.113281 214.003906 326.367188 216.140625 327.429688 218.082031 L 327.417969 218.082031 C 326.957031 218.128906 326.53125 218.148438 326.144531 218.140625 C 325.960938 218.140625 325.789062 218.128906 325.625 218.117188 C 320.90625 217.6875 317.332031 214.558594 314.902344 208.730469 L 314.894531 208.726562 C 313.492188 202.402344 316.425781 198.433594 323.695312 196.824219 C 324.019531 196.75 324.351562 196.683594 324.691406 196.621094 L 324.789062 196.589844 C 325.105469 196.445312 325.578125 196.378906 326.207031 196.390625 C 328.675781 196.429688 333.566406 197.660156 340.882812 200.074219 L 340.871094 200.074219 C 341.363281 200.890625 341.902344 201.804688 342.488281 202.8125 L 342.515625 202.851562 C 343.15625 203.71875 343.910156 204.425781 344.773438 204.972656 L 344.816406 204.996094 C 346.421875 205.761719 347.75 206.15625 348.800781 206.175781 C 349.6875 206.1875 350.378906 205.9375 350.875 205.417969 C 350.96875 205.320312 351.007812 205.1875 350.984375 205.058594 C 350.703125 203.535156 348.167969 201.863281 343.371094 200.042969 L 343.359375 200.039062 C 342.695312 199.8125 342.046875 199.59375 341.417969 199.386719 L 341.40625 199.386719 C 339.460938 196.222656 338.152344 194.46875 337.476562 194.121094 L 337.464844 194.121094 C 336.652344 193.214844 333.699219 192.28125 328.613281 191.320312 L 328.601562 191.320312 C 327.75 190.972656 327.191406 190.546875 326.917969 190.042969 C 326.867188 189.949219 326.785156 189.882812 326.6875 189.847656 C 326.335938 189.730469 326.4375 188.851562 326.988281 187.21875 C 327.453125 185.847656 328.25 184.027344 329.378906 181.75 C 329.429688 181.652344 329.4375 181.539062 329.402344 181.433594 L 325.191406 169.214844 L 325.179688 169.214844 C 325.3125 168.003906 326.242188 167.007812 327.964844 166.230469 L 327.953125 166.230469 C 329.066406 165.917969 330.21875 165.769531 331.410156 165.789062 C 335.570312 165.859375 340.199219 167.953125 345.296875 172.070312 L 345.285156 172.070312 C 345.273438 172.082031 345.261719 172.089844 345.25 172.101562 C 344.636719 172.691406 344.335938 173.179688 344.34375 173.570312 L 344.34375 173.574219 C 344.347656 173.769531 344.417969 173.941406 344.554688 174.082031 C 350.59375 181.40625 354.011719 190.078125 354.8125 200.101562 C 354.828125 200.277344 354.957031 200.429688 355.128906 200.46875 C 355.160156 200.476562 355.1875 200.480469 355.214844 200.480469 C 355.363281 200.480469 355.5 200.40625 355.578125 200.277344 C 359.730469 193.273438 359.046875 186.113281 353.519531 178.792969 L 353.492188 178.765625 C 351.105469 176.160156 348.792969 173.921875 346.566406 172.054688 L 346.554688 172.054688 C 347.25 171.488281 348.195312 170.816406 349.382812 170.03125 C 349.449219 169.988281 349.5 169.929688 349.53125 169.859375 C 350.738281 167.253906 351.746094 165.8125 352.546875 165.539062 L 352.613281 165.511719 C 353.390625 165.082031 354.195312 164.875 355.027344 164.890625 C 356.144531 164.910156 357.316406 165.328125 358.53125 166.144531 C 362.023438 168.992188 363.636719 174.914062 363.363281 183.914062 L 363.363281 183.929688 C 363.394531 191.816406 361.429688 197.617188 357.46875 201.335938 C 357.351562 201.441406 357.308594 201.605469 357.355469 201.753906 C 357.402344 201.90625 357.53125 202.015625 357.6875 202.039062 C 361.257812 202.59375 364.046875 202.886719 366.0625 202.921875 C 367.460938 202.945312 368.484375 202.84375 369.136719 202.613281 L 369.125 202.613281 C 371.238281 202.253906 372.75 201.464844 373.648438 200.25 C 374.527344 199.199219 374.53125 198.308594 373.660156 197.582031 C 373.5625 197.5 373.449219 197.421875 373.328125 197.34375 C 373.277344 197.316406 373.222656 197.292969 373.164062 197.289062 C 372.9375 197.257812 372.726562 197.242188 372.53125 197.238281 C 371.5 197.222656 370.9375 197.570312 370.847656 198.28125 C 370.8125 198.5625 370.867188 198.894531 371.015625 199.273438 C 371.078125 199.433594 371.230469 199.53125 371.394531 199.535156 C 371.445312 199.535156 371.5 199.527344 371.550781 199.507812 C 371.761719 199.421875 371.863281 199.183594 371.78125 198.972656 C 371.683594 198.726562 371.644531 198.527344 371.664062 198.386719 C 371.691406 198.15625 371.964844 198.046875 372.476562 198.054688 C 372.625 198.058594 372.792969 198.070312 372.984375 198.09375 L 372.972656 198.09375 C 373.03125 198.132812 373.085938 198.171875 373.132812 198.214844 C 373.582031 198.589844 373.542969 199.09375 373.015625 199.726562 L 373 199.746094 C 372.230469 200.792969 370.890625 201.480469 368.972656 201.804688 L 368.902344 201.824219 C 368.332031 202.035156 367.398438 202.132812 366.105469 202.109375 C 364.3125 202.078125 361.820312 201.828125 358.632812 201.351562 L 358.621094 201.351562 C 362.359375 197.46875 364.214844 191.664062 364.1875 183.941406 C 364.46875 174.644531 362.746094 168.492188 359.019531 165.484375 L 358.992188 165.464844 C 357.628906 164.546875 356.3125 164.082031 355.042969 164.058594 Z M 355.042969 164.058594 " fill-opacity="1" fill-rule="nonzero"/></g><path fill="#81568d" d="M 368.679688 192.578125 C 368.660156 192.578125 368.636719 192.578125 368.617188 192.582031 C 368.601562 192.582031 368.589844 192.585938 368.578125 192.585938 C 367.75 192.722656 367.417969 193.304688 367.585938 194.332031 C 367.621094 194.53125 367.789062 194.675781 367.984375 194.675781 C 368.011719 194.675781 368.035156 194.675781 368.058594 194.671875 C 368.285156 194.636719 368.4375 194.421875 368.402344 194.273438 L 368.398438 194.199219 C 368.332031 193.796875 368.394531 193.546875 368.578125 193.441406 L 368.589844 193.441406 C 368.753906 193.636719 368.785156 194.003906 368.6875 194.550781 C 368.46875 195.378906 367.914062 196.117188 367.019531 196.769531 L 367.015625 196.769531 C 364.03125 198.71875 361.070312 200.191406 358.140625 201.191406 C 357.925781 201.265625 357.8125 201.5 357.886719 201.714844 C 357.941406 201.882812 358.097656 201.992188 358.269531 201.992188 C 358.3125 201.992188 358.363281 201.988281 358.40625 201.972656 C 361.410156 200.945312 364.433594 199.4375 367.484375 197.445312 L 367.503906 197.433594 C 368.566406 196.65625 369.230469 195.753906 369.492188 194.726562 L 369.5 194.695312 C 369.683594 193.648438 369.472656 192.960938 368.871094 192.628906 C 368.8125 192.597656 368.746094 192.578125 368.679688 192.578125 Z M 368.679688 192.578125 " fill-opacity="1" fill-rule="nonzero"/><g fill="#9a1cbf" fill-opacity="1"><g transform="translate(38.910321, 207.317345)"><g><path d="M 57.273438 -44.691406 C 54.015625 -45.136719 52.832031 -42.472656 52.832031 -42.175781 C 51.648438 -37.292969 45.136719 -33.890625 41.4375 -38.328125 C 46.320312 -49.574219 47.800781 -59.789062 47.058594 -67.628906 C 46.320312 -76.953125 40.402344 -85.390625 30.484375 -82.578125 C 25.011719 -81.097656 20.273438 -76.511719 16.277344 -68.960938 C 15.539062 -67.628906 15.242188 -67.039062 15.242188 -67.484375 C 15.242188 -70.292969 14.652344 -76.953125 14.355469 -77.988281 C 13.910156 -80.0625 13.023438 -81.691406 11.691406 -82.726562 C 10.949219 -83.167969 10.65625 -83.464844 10.507812 -83.316406 C 10.359375 -82.875 9.914062 -82.875 9.472656 -83.613281 C 9.324219 -83.910156 9.027344 -84.058594 8.730469 -83.910156 C 8.289062 -83.761719 8.140625 -83.613281 8.140625 -83.761719 C 8.140625 -84.351562 7.546875 -83.910156 7.101562 -83.167969 C 6.808594 -82.726562 6.660156 -82.429688 6.511719 -82.429688 C 6.363281 -82.429688 6.363281 -82.429688 6.363281 -82.578125 C 6.511719 -82.726562 6.511719 -82.875 6.363281 -82.875 C 6.066406 -82.875 6.066406 -83.019531 6.214844 -83.167969 C 6.660156 -83.613281 5.917969 -84.207031 5.476562 -83.761719 C 5.03125 -83.761719 4.882812 -83.613281 4.882812 -83.167969 C 4.734375 -83.019531 4.585938 -82.875 4.441406 -82.875 C 4.292969 -82.875 4.292969 -83.019531 4.292969 -83.167969 C 4.734375 -83.761719 3.847656 -83.167969 2.8125 -82.429688 C -2.367188 -75.769531 -0.296875 -53.570312 0.148438 -46.320312 C 1.332031 -21.902344 1.925781 -12.28125 3.109375 -4.734375 C 4.144531 0.445312 4.585938 1.628906 5.328125 0.445312 C 5.476562 0.148438 5.625 0.148438 5.625 0.59375 C 5.625 1.035156 5.773438 1.480469 5.917969 1.628906 C 6.066406 1.777344 6.363281 1.777344 6.660156 1.480469 C 6.808594 1.332031 6.957031 0.886719 7.101562 0.296875 C 7.101562 -0.445312 7.101562 -0.738281 7.25 -0.886719 C 7.398438 -1.035156 7.398438 -0.738281 7.546875 0.148438 L 7.992188 2.21875 C 8.289062 2.515625 8.582031 2.515625 8.878906 2.21875 C 9.175781 1.925781 9.324219 1.925781 9.324219 2.070312 C 9.324219 2.8125 10.0625 2.664062 10.507812 1.925781 C 10.65625 1.777344 10.804688 1.183594 10.949219 0.148438 C 11.394531 -1.480469 11.691406 -1.925781 11.691406 -0.738281 C 11.691406 -0.296875 11.691406 0.59375 11.839844 1.183594 C 11.988281 1.925781 12.136719 2.367188 12.429688 2.21875 C 12.726562 2.21875 13.023438 1.777344 13.320312 0.738281 L 13.613281 -0.738281 L 13.761719 0.296875 L 14.058594 1.480469 C 14.503906 1.925781 15.539062 0.886719 15.984375 -0.148438 C 16.425781 -0.886719 16.277344 -5.328125 16.277344 -11.394531 L 16.277344 -18.203125 C 19.976562 -17.757812 24.863281 -19.238281 27.671875 -21.015625 C 30.78125 -22.9375 34.332031 -26.636719 38.03125 -32.558594 C 40.546875 -30.632812 43.210938 -29.746094 46.171875 -29.746094 C 53.421875 -29.746094 57.566406 -35.515625 59.195312 -40.84375 C 59.34375 -42.472656 59.492188 -44.25 57.273438 -44.691406 Z M 39.808594 -46.914062 C 40.992188 -50.90625 42.027344 -55.347656 42.472656 -58.160156 C 42.917969 -60.972656 43.210938 -59.789062 42.769531 -56.234375 C 42.324219 -52.683594 41.585938 -48.097656 40.546875 -45.285156 C 39.511719 -42.917969 39.511719 -42.621094 39.070312 -43.210938 C 38.625 -43.65625 38.773438 -43.953125 39.808594 -46.914062 Z M 36.257812 -49.574219 C 36.699219 -51.945312 38.328125 -58.160156 38.328125 -60.378906 C 38.773438 -62.746094 38.773438 -62.007812 38.625 -59.195312 C 38.179688 -53.71875 36.847656 -45.136719 36.109375 -45.136719 C 35.8125 -45.136719 35.515625 -45.136719 35.371094 -45.285156 C 34.925781 -45.433594 35.074219 -45.582031 36.257812 -49.574219 Z M 32.558594 -75.03125 C 35.515625 -71.773438 34.332031 -61.121094 33.890625 -57.273438 C 33.296875 -53.867188 32.410156 -49.132812 31.964844 -47.355469 L 31.667969 -46.617188 C 31.078125 -46.765625 28.117188 -47.503906 24.121094 -46.765625 C 22.347656 -46.320312 20.421875 -45.726562 18.203125 -44.398438 C 19.976562 -49.722656 25.304688 -75.03125 32.558594 -75.03125 Z M 18.5 -59.789062 C 19.535156 -62.15625 21.015625 -65.410156 21.164062 -65.261719 C 21.015625 -65.113281 21.015625 -64.96875 21.015625 -64.820312 L 20.71875 -63.929688 C 19.089844 -60.378906 17.316406 -54.164062 15.984375 -47.800781 C 15.390625 -44.691406 15.242188 -44.25 15.242188 -45.285156 C 15.242188 -47.949219 16.871094 -56.234375 18.5 -59.789062 Z M 29.449219 -40.105469 C 29.003906 -38.921875 26.785156 -34.039062 25.15625 -31.523438 C 23.382812 -28.710938 19.832031 -25.15625 18.203125 -24.121094 L 17.316406 -23.53125 L 16.871094 -24.269531 C 16.277344 -25.453125 16.425781 -28.859375 17.167969 -30.78125 C 18.792969 -36.109375 23.972656 -41.585938 29.597656 -40.402344 C 29.597656 -40.253906 29.597656 -40.253906 29.449219 -40.105469 Z M 29.449219 -40.105469 "/></g></g></g><g fill="#9a1cbf" fill-opacity="1"><g transform="translate(91.594097, 207.317345)"><g><path d="M 60.378906 -44.398438 C 58.601562 -44.839844 56.976562 -43.804688 56.53125 -42.027344 C 56.53125 -41.878906 54.460938 -33.296875 51.351562 -23.824219 C 48.984375 -16.871094 47.652344 -14.355469 45.875 -11.246094 C 44.839844 -9.765625 42.324219 -6.660156 41.140625 -8.289062 C 40.105469 -9.324219 40.105469 -12.136719 40.546875 -15.6875 C 40.546875 -23.085938 48.097656 -51.945312 48.097656 -58.601562 C 48.539062 -60.972656 48.097656 -63.78125 47.058594 -65.410156 C 46.46875 -67.039062 44.542969 -68.371094 44.101562 -67.925781 C 43.804688 -67.628906 43.507812 -67.628906 43.210938 -68.074219 C 42.027344 -69.40625 40.992188 -69.851562 38.773438 -70.589844 C 35.371094 -71.921875 31.523438 -72.21875 26.933594 -71.625 C 19.386719 -70.886719 11.394531 -66.003906 6.214844 -59.34375 C -2.367188 -47.949219 -4.144531 -22.640625 3.402344 -15.539062 C 4.734375 -14.207031 6.066406 -13.320312 8.433594 -12.578125 C 9.472656 -12.136719 10.359375 -12.28125 12.28125 -12.28125 C 15.09375 -12.429688 16.722656 -12.578125 18.648438 -14.207031 C 21.605469 -16.574219 22.347656 -18.941406 23.382812 -21.457031 L 24.121094 -23.382812 C 26.046875 -9.472656 27.671875 -3.699219 32.113281 -1.480469 C 42.621094 3.996094 51.945312 0.445312 57.417969 -21.753906 C 59.789062 -31.816406 62.746094 -40.105469 62.746094 -40.546875 C 63.191406 -42.324219 62.15625 -43.953125 60.378906 -44.398438 Z M 41.140625 -56.085938 C 41.585938 -57.863281 42.324219 -59.933594 42.769531 -59.492188 C 42.769531 -59.34375 42.769531 -58.308594 42.621094 -57.125 C 42.175781 -55.941406 41.734375 -52.980469 41.289062 -50.613281 C 39.363281 -42.324219 37.292969 -30.042969 36.554688 -22.789062 C 36.40625 -22.347656 36.40625 -22.496094 36.40625 -23.234375 C 36.40625 -27.671875 39.21875 -46.617188 41.140625 -56.085938 Z M 8.433594 -50.613281 C 7.25 -46.914062 4.882812 -38.625 4.882812 -36.996094 C 4.882812 -36.699219 4.734375 -36.40625 4.585938 -35.960938 C 4.441406 -35.8125 4.292969 -36.699219 4.441406 -38.328125 C 4.585938 -44.398438 5.328125 -46.617188 7.546875 -50.316406 C 9.324219 -53.71875 9.621094 -53.570312 8.433594 -50.613281 Z M 10.804688 -38.328125 C 9.765625 -33.742188 9.621094 -33.890625 10.0625 -38.179688 C 10.0625 -39.957031 12.578125 -52.09375 14.800781 -52.09375 C 13.761719 -48.097656 11.542969 -42.621094 10.804688 -38.328125 Z M 15.242188 -21.457031 L 15.09375 -22.199219 C 14.800781 -23.53125 14.800781 -32.707031 15.242188 -35.074219 C 15.984375 -40.253906 18.648438 -48.390625 20.71875 -52.09375 C 23.234375 -56.828125 26.046875 -59.640625 30.042969 -61.859375 C 31.078125 -62.449219 32.113281 -62.597656 31.964844 -62.15625 C 28.414062 -55.347656 29.003906 -47.800781 25.601562 -41.585938 C 22.9375 -36.257812 18.792969 -26.046875 16.425781 -22.789062 Z M 15.242188 -21.457031 "/></g></g></g><g fill="#9a1cbf" fill-opacity="1"><g transform="translate(147.977563, 207.317345)"><g><path d="M 71.773438 -43.953125 C 70 -44.398438 68.371094 -43.359375 67.925781 -41.585938 C 67.777344 -41.4375 65.410156 -30.632812 61.710938 -19.535156 C 59.492188 -13.023438 57.417969 -7.546875 55.496094 -3.402344 C 52.386719 2.960938 51.054688 4.144531 49.722656 3.550781 L 49.429688 2.8125 C 48.390625 -0.296875 47.800781 -4.144531 47.652344 -9.914062 C 47.207031 -24.121094 50.90625 -37.292969 51.648438 -51.054688 C 52.09375 -55.792969 51.796875 -59.195312 50.90625 -61.121094 C 50.316406 -62.304688 48.835938 -63.929688 47.800781 -63.929688 C 47.652344 -63.929688 47.355469 -64.078125 46.914062 -64.226562 C 46.46875 -64.375 45.875 -64.523438 45.433594 -64.375 L 43.507812 -64.375 C 43.066406 -64.375 42.621094 -64.226562 42.472656 -64.078125 C 42.472656 -63.929688 42.324219 -63.78125 41.878906 -63.78125 C 40.84375 -63.78125 40.253906 -62.746094 38.03125 -59.046875 C 31.667969 -47.800781 27.527344 -36.109375 20.570312 -25.898438 C 18.351562 -22.9375 15.984375 -20.125 13.023438 -17.316406 C 12.578125 -27.527344 14.207031 -35.664062 15.835938 -44.398438 C 16.574219 -49.429688 19.683594 -58.75 18.203125 -63.339844 C 17.460938 -65.707031 13.320312 -66.445312 14.355469 -66.152344 C 14.207031 -66.152344 13.910156 -65.855469 13.46875 -65.261719 C 12.875 -63.636719 13.320312 -65.410156 13.320312 -65.855469 C 13.761719 -66.59375 12.136719 -65.261719 11.988281 -64.820312 C 9.175781 -59.34375 6.214844 -47.355469 4.292969 -35.664062 C 3.253906 -30.191406 3.402344 -30.042969 3.550781 -33 C 3.996094 -39.363281 6.511719 -52.386719 7.695312 -56.53125 C 8.730469 -60.230469 11.246094 -64.226562 11.246094 -65.410156 C 11.246094 -66.152344 9.175781 -65.410156 8.730469 -65.261719 C 5.328125 -63.042969 2.515625 -56.53125 0.148438 -44.691406 C -3.253906 -27.378906 -1.332031 -15.984375 4.585938 -11.691406 C 19.386719 -1.035156 35.371094 -36.847656 39.511719 -48.835938 C 41.4375 -54.3125 34.925781 -25.601562 34.183594 -11.839844 C 33.742188 -3.699219 35.074219 5.917969 42.027344 9.914062 C 45.433594 12.136719 49.429688 12.136719 52.535156 10.804688 C 55.347656 9.175781 58.308594 5.476562 61.265625 -0.59375 C 63.488281 -5.179688 65.558594 -10.507812 67.777344 -17.460938 C 71.625 -28.859375 74.140625 -39.957031 74.140625 -40.105469 C 74.585938 -41.878906 73.550781 -43.507812 71.773438 -43.953125 Z M 1.777344 -37.886719 C 1.628906 -37.441406 1.628906 -37.589844 1.628906 -38.03125 C 1.628906 -42.324219 4.292969 -55.347656 7.101562 -59.789062 C 7.25 -59.789062 6.808594 -58.75 6.363281 -57.125 C 4.882812 -52.535156 3.402344 -46.171875 1.777344 -37.886719 Z M 8.140625 -27.378906 L 8.140625 -29.597656 C 8.582031 -36.40625 11.097656 -50.761719 13.46875 -60.082031 C 14.207031 -62.597656 14.800781 -62.597656 14.355469 -60.082031 C 14.207031 -59.046875 13.613281 -56.085938 12.875 -53.128906 C 11.691406 -47.949219 9.765625 -36.847656 8.582031 -30.484375 Z M 46.171875 -40.992188 C 46.914062 -46.320312 47.652344 -50.90625 47.652344 -51.351562 C 47.652344 -51.796875 47.652344 -51.945312 47.800781 -51.796875 C 47.800781 -51.648438 47.800781 -50.167969 47.652344 -48.390625 C 47.207031 -46.765625 46.765625 -40.84375 45.726562 -35.074219 C 44.988281 -29.300781 44.101562 -23.972656 43.953125 -22.9375 C 43.804688 -21.605469 43.804688 -21.457031 43.804688 -22.050781 C 43.65625 -23.679688 44.542969 -30.335938 46.171875 -40.992188 Z M 39.511719 -24.121094 C 39.957031 -29.003906 40.253906 -31.375 42.175781 -43.066406 C 43.210938 -48.390625 43.804688 -53.277344 43.804688 -54.3125 C 44.25 -56.828125 44.542969 -56.382812 44.101562 -53.570312 C 43.65625 -50.464844 43.359375 -47.058594 41.734375 -36.40625 C 40.992188 -31.226562 40.105469 -25.304688 39.660156 -22.9375 C 39.070312 -17.757812 38.921875 -18.648438 39.511719 -24.121094 Z M 39.511719 -24.121094 "/></g></g></g><g fill="#9a1cbf" fill-opacity="1"><g transform="translate(216.052116, 207.317345)"><g><path d="M 45.136719 -44.691406 C 43.359375 -45.136719 41.878906 -43.804688 41.4375 -42.027344 C 41.4375 -42.027344 39.511719 -31.375 36.40625 -20.273438 C 30.929688 -0.886719 26.488281 3.699219 24.863281 4.441406 C 24.121094 4.882812 23.679688 4.882812 23.234375 4.441406 C 22.496094 4.144531 20.125 -1.035156 19.386719 -3.699219 C 18.351562 -6.511719 17.460938 -11.394531 17.019531 -14.800781 C 16.574219 -17.757812 16.128906 -27.96875 16.128906 -36.699219 L 17.609375 -38.921875 C 25.898438 -52.238281 29.894531 -60.378906 31.078125 -68.371094 C 32.707031 -77.546875 29.746094 -91.457031 19.089844 -93.085938 C 15.6875 -93.234375 13.171875 -92.492188 11.691406 -91.011719 C -2.8125 -70.148438 0.148438 -42.027344 0.59375 -30.929688 C 2.21875 -11.839844 7.25 1.777344 15.09375 7.695312 C 17.90625 9.914062 20.867188 11.246094 23.824219 11.246094 C 25.15625 11.246094 26.636719 10.804688 27.96875 10.0625 C 30.929688 8.433594 33.890625 4.441406 36.699219 -1.628906 C 38.921875 -6.214844 40.695312 -11.542969 42.621094 -18.5 C 45.726562 -29.894531 47.800781 -40.546875 47.800781 -40.992188 C 48.246094 -42.621094 46.914062 -44.25 45.136719 -44.691406 Z M 15.539062 -47.207031 L 15.539062 -51.648438 C 15.539062 -55.199219 15.6875 -61.121094 16.128906 -65.707031 C 16.722656 -74.4375 18.351562 -82.28125 20.570312 -85.980469 C 21.753906 -88.199219 22.347656 -86.574219 23.382812 -85.242188 C 27.082031 -79.46875 26.488281 -71.476562 24.714844 -65.707031 C 23.53125 -60.972656 19.976562 -52.535156 16.425781 -47.058594 L 15.539062 -45.433594 Z M 16.128906 -43.210938 C 16.425781 -43.953125 17.167969 -45.433594 18.351562 -47.355469 C 21.753906 -53.128906 23.234375 -56.382812 24.566406 -59.933594 C 25.304688 -61.5625 25.75 -62.449219 25.898438 -62.449219 C 25.898438 -62.304688 25.898438 -62.007812 25.75 -61.710938 C 25.601562 -61.265625 25.304688 -60.824219 25.15625 -60.230469 C 23.53125 -56.085938 21.164062 -50.90625 17.460938 -44.839844 L 16.128906 -42.621094 Z M 16.128906 -40.105469 C 16.277344 -40.546875 16.574219 -41.140625 17.019531 -41.734375 C 21.015625 -48.097656 25.15625 -55.941406 26.785156 -59.933594 C 26.933594 -60.527344 27.082031 -60.972656 27.230469 -61.121094 L 27.527344 -61.5625 L 27.082031 -60.378906 C 26.636719 -59.640625 26.488281 -58.601562 26.046875 -57.566406 L 22.496094 -50.167969 C 19.976562 -45.582031 17.167969 -40.84375 16.128906 -39.660156 Z M 16.128906 -40.105469 "/></g></g></g><g fill="#9a1cbf" fill-opacity="1"><g transform="translate(257.488778, 207.317345)"><g><path d="M 60.378906 -44.398438 C 58.601562 -44.839844 56.976562 -43.804688 56.53125 -42.027344 C 56.53125 -41.878906 54.460938 -33.296875 51.351562 -23.824219 C 48.984375 -16.871094 47.652344 -14.355469 45.875 -11.246094 C 44.839844 -9.765625 42.324219 -6.660156 41.140625 -8.289062 C 40.105469 -9.324219 40.105469 -12.136719 40.546875 -15.6875 C 40.546875 -23.085938 48.097656 -51.945312 48.097656 -58.601562 C 48.539062 -60.972656 48.097656 -63.78125 47.058594 -65.410156 C 46.46875 -67.039062 44.542969 -68.371094 44.101562 -67.925781 C 43.804688 -67.628906 43.507812 -67.628906 43.210938 -68.074219 C 42.027344 -69.40625 40.992188 -69.851562 38.773438 -70.589844 C 35.371094 -71.921875 31.523438 -72.21875 26.933594 -71.625 C 19.386719 -70.886719 11.394531 -66.003906 6.214844 -59.34375 C -2.367188 -47.949219 -4.144531 -22.640625 3.402344 -15.539062 C 4.734375 -14.207031 6.066406 -13.320312 8.433594 -12.578125 C 9.472656 -12.136719 10.359375 -12.28125 12.28125 -12.28125 C 15.09375 -12.429688 16.722656 -12.578125 18.648438 -14.207031 C 21.605469 -16.574219 22.347656 -18.941406 23.382812 -21.457031 L 24.121094 -23.382812 C 26.046875 -9.472656 27.671875 -3.699219 32.113281 -1.480469 C 42.621094 3.996094 51.945312 0.445312 57.417969 -21.753906 C 59.789062 -31.816406 62.746094 -40.105469 62.746094 -40.546875 C 63.191406 -42.324219 62.15625 -43.953125 60.378906 -44.398438 Z M 41.140625 -56.085938 C 41.585938 -57.863281 42.324219 -59.933594 42.769531 -59.492188 C 42.769531 -59.34375 42.769531 -58.308594 42.621094 -57.125 C 42.175781 -55.941406 41.734375 -52.980469 41.289062 -50.613281 C 39.363281 -42.324219 37.292969 -30.042969 36.554688 -22.789062 C 36.40625 -22.347656 36.40625 -22.496094 36.40625 -23.234375 C 36.40625 -27.671875 39.21875 -46.617188 41.140625 -56.085938 Z M 8.433594 -50.613281 C 7.25 -46.914062 4.882812 -38.625 4.882812 -36.996094 C 4.882812 -36.699219 4.734375 -36.40625 4.585938 -35.960938 C 4.441406 -35.8125 4.292969 -36.699219 4.441406 -38.328125 C 4.585938 -44.398438 5.328125 -46.617188 7.546875 -50.316406 C 9.324219 -53.71875 9.621094 -53.570312 8.433594 -50.613281 Z M 10.804688 -38.328125 C 9.765625 -33.742188 9.621094 -33.890625 10.0625 -38.179688 C 10.0625 -39.957031 12.578125 -52.09375 14.800781 -52.09375 C 13.761719 -48.097656 11.542969 -42.621094 10.804688 -38.328125 Z M 15.242188 -21.457031 L 15.09375 -22.199219 C 14.800781 -23.53125 14.800781 -32.707031 15.242188 -35.074219 C 15.984375 -40.253906 18.648438 -48.390625 20.71875 -52.09375 C 23.234375 -56.828125 26.046875 -59.640625 30.042969 -61.859375 C 31.078125 -62.449219 32.113281 -62.597656 31.964844 -62.15625 C 28.414062 -55.347656 29.003906 -47.800781 25.601562 -41.585938 C 22.9375 -36.257812 18.792969 -26.046875 16.425781 -22.789062 Z M 15.242188 -21.457031 "/></g></g></g></svg>