<svg xmlns="http://www.w3.org/2000/svg" xmlns:xlink="http://www.w3.org/1999/xlink" width="1080" zoomAndPan="magnify" viewBox="0 0 810 809.999993" height="1080" preserveAspectRatio="xMidYMid meet" version="1.0"><defs><g/></defs><rect x="-81" width="972" fill="#ffffff" y="-80.999999" height="971.999992" fill-opacity="1"/><rect x="-81" width="972" fill="#ffffff" y="-80.999999" height="971.999992" fill-opacity="1"/><g fill="#9a1cbf" fill-opacity="1"><g transform="translate(84.046288, 471.106271)"><g><path d="M 134.332031 -104.828125 C 126.695312 -105.871094 123.921875 -99.621094 123.921875 -98.929688 C 121.144531 -87.472656 105.871094 -79.488281 97.191406 -89.902344 C 108.648438 -116.285156 112.117188 -140.234375 110.382812 -158.632812 C 108.648438 -180.5 94.761719 -200.285156 71.503906 -193.691406 C 58.664062 -190.21875 47.554688 -179.457031 38.183594 -161.753906 C 36.445312 -158.632812 35.753906 -157.242188 35.753906 -158.285156 C 35.753906 -164.878906 34.363281 -180.5 33.671875 -182.929688 C 32.628906 -187.789062 30.546875 -191.609375 27.421875 -194.039062 C 25.6875 -195.078125 24.992188 -195.773438 24.644531 -195.425781 C 24.296875 -194.382812 23.257812 -194.382812 22.214844 -196.121094 C 21.867188 -196.8125 21.175781 -197.160156 20.480469 -196.8125 C 19.4375 -196.46875 19.089844 -196.121094 19.089844 -196.46875 C 19.089844 -197.855469 17.703125 -196.8125 16.660156 -195.078125 C 15.96875 -194.039062 15.621094 -193.34375 15.273438 -193.34375 C 14.925781 -193.34375 14.925781 -193.34375 14.925781 -193.691406 C 15.273438 -194.039062 15.273438 -194.382812 14.925781 -194.382812 C 14.230469 -194.382812 14.230469 -194.730469 14.578125 -195.078125 C 15.621094 -196.121094 13.882812 -197.507812 12.84375 -196.46875 C 11.800781 -196.46875 11.453125 -196.121094 11.453125 -195.078125 C 11.109375 -194.730469 10.761719 -194.382812 10.414062 -194.382812 C 10.066406 -194.382812 10.066406 -194.730469 10.066406 -195.078125 C 11.109375 -196.46875 9.023438 -195.078125 6.59375 -193.34375 C -5.554688 -177.722656 -0.695312 -125.65625 0.347656 -108.648438 C 3.125 -51.371094 4.511719 -28.808594 7.289062 -11.109375 C 9.71875 1.042969 10.761719 3.816406 12.496094 1.042969 C 12.84375 0.347656 13.191406 0.347656 13.191406 1.386719 C 13.191406 2.429688 13.539062 3.472656 13.882812 3.816406 C 14.230469 4.164062 14.925781 4.164062 15.621094 3.472656 C 15.96875 3.125 16.3125 2.082031 16.660156 0.695312 C 16.660156 -1.042969 16.660156 -1.734375 17.007812 -2.082031 C 17.355469 -2.429688 17.355469 -1.734375 17.703125 0.347656 L 18.746094 5.207031 C 19.4375 5.902344 20.132812 5.902344 20.828125 5.207031 C 21.519531 4.511719 21.867188 4.511719 21.867188 4.859375 C 21.867188 6.59375 23.605469 6.25 24.644531 4.511719 C 24.992188 4.164062 25.339844 2.777344 25.6875 0.347656 C 26.726562 -3.472656 27.421875 -4.511719 27.421875 -1.734375 C 27.421875 -0.695312 27.421875 1.386719 27.769531 2.777344 C 28.117188 4.511719 28.464844 5.554688 29.15625 5.207031 C 29.851562 5.207031 30.546875 4.164062 31.242188 1.734375 L 31.933594 -1.734375 L 32.28125 0.695312 L 32.976562 3.472656 C 34.015625 4.511719 36.445312 2.082031 37.488281 -0.347656 C 38.53125 -2.082031 38.183594 -12.496094 38.183594 -26.726562 L 38.183594 -42.695312 C 46.859375 -41.652344 58.316406 -45.125 64.910156 -49.289062 C 72.199219 -53.804688 80.53125 -62.480469 89.207031 -76.367188 C 95.109375 -71.851562 101.359375 -69.769531 108.300781 -69.769531 C 125.308594 -69.769531 135.027344 -83.308594 138.847656 -95.804688 C 139.191406 -99.621094 139.539062 -103.789062 134.332031 -104.828125 Z M 93.375 -110.035156 C 96.152344 -119.40625 98.582031 -129.820312 99.621094 -136.417969 C 100.664062 -143.011719 101.359375 -140.234375 100.316406 -131.902344 C 99.273438 -123.574219 97.539062 -112.8125 95.109375 -106.21875 C 92.679688 -100.664062 92.679688 -99.96875 91.636719 -101.359375 C 90.597656 -102.398438 90.945312 -103.09375 93.375 -110.035156 Z M 85.042969 -116.285156 C 86.085938 -121.835938 89.902344 -136.417969 89.902344 -141.621094 C 90.945312 -147.175781 90.945312 -145.441406 90.597656 -138.847656 C 89.554688 -126.003906 86.429688 -105.871094 84.695312 -105.871094 C 84 -105.871094 83.308594 -105.871094 82.960938 -106.21875 C 81.917969 -106.5625 82.265625 -106.910156 85.042969 -116.285156 Z M 76.367188 -175.988281 C 83.308594 -168.351562 80.53125 -143.359375 79.488281 -134.332031 C 78.101562 -126.351562 76.019531 -115.242188 74.976562 -111.078125 L 74.28125 -109.339844 C 72.894531 -109.6875 65.953125 -111.425781 56.578125 -109.6875 C 52.414062 -108.648438 47.902344 -107.257812 42.695312 -104.132812 C 46.859375 -116.628906 59.355469 -175.988281 76.367188 -175.988281 Z M 43.390625 -140.234375 C 45.820312 -145.789062 49.289062 -153.425781 49.636719 -153.078125 C 49.289062 -152.730469 49.289062 -152.382812 49.289062 -152.035156 L 48.597656 -149.953125 C 44.777344 -141.621094 40.613281 -127.042969 37.488281 -112.117188 C 36.101562 -104.828125 35.753906 -103.789062 35.753906 -106.21875 C 35.753906 -112.464844 39.570312 -131.902344 43.390625 -140.234375 Z M 69.074219 -94.066406 C 68.035156 -91.292969 62.828125 -79.835938 59.007812 -73.933594 C 54.84375 -67.339844 46.511719 -59.007812 42.695312 -56.578125 L 40.613281 -55.191406 L 39.570312 -56.925781 C 38.183594 -59.703125 38.53125 -67.6875 40.265625 -72.199219 C 44.082031 -84.695312 56.234375 -97.539062 69.421875 -94.761719 C 69.421875 -94.414062 69.421875 -94.414062 69.074219 -94.066406 Z M 69.074219 -94.066406 "/></g></g></g><g fill="#9a1cbf" fill-opacity="1"><g transform="translate(207.619036, 471.106271)"><g><path d="M 141.621094 -104.132812 C 137.457031 -105.175781 133.640625 -102.746094 132.597656 -98.582031 C 132.597656 -98.234375 127.738281 -78.101562 120.449219 -55.886719 C 114.894531 -39.570312 111.769531 -33.671875 107.605469 -26.378906 C 105.175781 -22.910156 99.273438 -15.621094 96.496094 -19.4375 C 94.066406 -21.867188 94.066406 -28.464844 95.109375 -36.792969 C 95.109375 -54.148438 112.8125 -121.835938 112.8125 -137.457031 C 113.855469 -143.011719 112.8125 -149.605469 110.382812 -153.425781 C 108.992188 -157.242188 104.480469 -160.367188 103.441406 -159.324219 C 102.746094 -158.632812 102.050781 -158.632812 101.359375 -159.671875 C 98.582031 -162.796875 96.152344 -163.839844 90.945312 -165.574219 C 82.960938 -168.699219 73.933594 -169.390625 63.175781 -168.003906 C 45.472656 -166.269531 26.726562 -154.8125 14.578125 -139.191406 C -5.554688 -112.464844 -9.71875 -53.109375 7.984375 -36.445312 C 11.109375 -33.324219 14.230469 -31.242188 19.785156 -29.503906 C 22.214844 -28.464844 24.296875 -28.808594 28.808594 -28.808594 C 35.40625 -29.15625 39.222656 -29.503906 43.738281 -33.324219 C 50.679688 -38.875 52.414062 -44.429688 54.84375 -50.332031 L 56.578125 -54.84375 C 61.09375 -22.214844 64.910156 -8.679688 75.324219 -3.472656 C 99.96875 9.371094 121.835938 1.042969 134.679688 -51.027344 C 140.234375 -74.628906 147.175781 -94.066406 147.175781 -95.109375 C 148.21875 -99.273438 145.789062 -103.09375 141.621094 -104.132812 Z M 96.496094 -131.554688 C 97.539062 -135.722656 99.273438 -140.582031 100.316406 -139.539062 C 100.316406 -139.191406 100.316406 -136.761719 99.96875 -133.988281 C 98.929688 -131.210938 97.886719 -124.265625 96.84375 -118.714844 C 92.332031 -99.273438 87.472656 -70.464844 85.738281 -53.457031 C 85.390625 -52.414062 85.390625 -52.761719 85.390625 -54.496094 C 85.390625 -64.910156 91.984375 -109.339844 96.496094 -131.554688 Z M 19.785156 -118.714844 C 17.007812 -110.035156 11.453125 -90.597656 11.453125 -86.777344 C 11.453125 -86.085938 11.109375 -85.390625 10.761719 -84.347656 C 10.414062 -84 10.066406 -86.085938 10.414062 -89.902344 C 10.761719 -104.132812 12.496094 -109.339844 17.703125 -118.019531 C 21.867188 -126.003906 22.5625 -125.65625 19.785156 -118.714844 Z M 25.339844 -89.902344 C 22.910156 -79.140625 22.5625 -79.488281 23.605469 -89.554688 C 23.605469 -93.722656 29.503906 -122.183594 34.710938 -122.183594 C 32.28125 -112.8125 27.074219 -99.96875 25.339844 -89.902344 Z M 35.753906 -50.332031 L 35.40625 -52.066406 C 34.710938 -55.191406 34.710938 -76.710938 35.753906 -82.265625 C 37.488281 -94.414062 43.738281 -113.507812 48.597656 -122.183594 C 54.496094 -133.292969 61.09375 -139.886719 70.464844 -145.09375 C 72.894531 -146.484375 75.324219 -146.828125 74.976562 -145.789062 C 66.644531 -129.820312 68.035156 -112.117188 60.050781 -97.539062 C 53.804688 -85.042969 44.082031 -61.09375 38.53125 -53.457031 Z M 35.753906 -50.332031 "/></g></g></g><g fill="#9a1cbf" fill-opacity="1"><g transform="translate(339.869612, 471.106271)"><g><path d="M 168.351562 -103.09375 C 164.183594 -104.132812 160.367188 -101.703125 159.324219 -97.539062 C 158.980469 -97.191406 153.425781 -71.851562 144.746094 -45.820312 C 139.539062 -30.546875 134.679688 -17.703125 130.167969 -7.984375 C 122.878906 6.941406 119.753906 9.71875 116.628906 8.332031 L 115.9375 6.59375 C 113.507812 -0.695312 112.117188 -9.71875 111.769531 -23.257812 C 110.730469 -56.578125 119.40625 -87.472656 121.144531 -119.753906 C 122.183594 -130.863281 121.492188 -138.847656 119.40625 -143.359375 C 118.019531 -146.136719 114.546875 -149.953125 112.117188 -149.953125 C 111.769531 -149.953125 111.078125 -150.300781 110.035156 -150.648438 C 108.992188 -150.996094 107.605469 -151.34375 106.5625 -150.996094 L 102.050781 -150.996094 C 101.011719 -150.996094 99.96875 -150.648438 99.621094 -150.300781 C 99.621094 -149.953125 99.273438 -149.605469 98.234375 -149.605469 C 95.804688 -149.605469 94.414062 -147.175781 89.207031 -138.5 C 74.28125 -112.117188 64.5625 -84.695312 48.25 -60.746094 C 43.042969 -53.804688 37.488281 -47.207031 30.546875 -40.613281 C 29.503906 -64.5625 33.324219 -83.65625 37.140625 -104.132812 C 38.875 -115.9375 46.167969 -137.804688 42.695312 -148.566406 C 40.960938 -154.117188 31.242188 -155.855469 33.671875 -155.160156 C 33.324219 -155.160156 32.628906 -154.464844 31.585938 -153.078125 C 30.199219 -149.257812 31.242188 -153.425781 31.242188 -154.464844 C 32.28125 -156.203125 28.464844 -153.078125 28.117188 -152.035156 C 21.519531 -139.191406 14.578125 -111.078125 10.066406 -83.65625 C 7.636719 -70.8125 7.984375 -70.464844 8.332031 -77.40625 C 9.371094 -92.332031 15.273438 -122.878906 18.050781 -132.597656 C 20.480469 -141.277344 26.378906 -150.648438 26.378906 -153.425781 C 26.378906 -155.160156 21.519531 -153.425781 20.480469 -153.078125 C 12.496094 -147.871094 5.902344 -132.597656 0.347656 -104.828125 C -7.636719 -64.214844 -3.125 -37.488281 10.761719 -27.421875 C 45.472656 -2.429688 82.960938 -86.429688 92.679688 -114.546875 C 97.191406 -127.390625 81.917969 -60.050781 80.183594 -27.769531 C 79.140625 -8.679688 82.265625 13.882812 98.582031 23.257812 C 106.5625 28.464844 115.9375 28.464844 123.226562 25.339844 C 129.820312 21.519531 136.761719 12.84375 143.707031 -1.386719 C 148.914062 -12.148438 153.773438 -24.644531 158.980469 -40.960938 C 168.003906 -67.6875 173.90625 -93.722656 173.90625 -94.066406 C 174.945312 -98.234375 172.515625 -102.050781 168.351562 -103.09375 Z M 4.164062 -88.863281 C 3.816406 -87.820312 3.816406 -88.167969 3.816406 -89.207031 C 3.816406 -99.273438 10.066406 -129.820312 16.660156 -140.234375 C 17.007812 -140.234375 15.96875 -137.804688 14.925781 -133.988281 C 11.453125 -123.226562 7.984375 -108.300781 4.164062 -88.863281 Z M 19.089844 -64.214844 L 19.089844 -69.421875 C 20.132812 -85.390625 26.035156 -119.058594 31.585938 -140.929688 C 33.324219 -146.828125 34.710938 -146.828125 33.671875 -140.929688 C 33.324219 -138.5 31.933594 -131.554688 30.199219 -124.613281 C 27.421875 -112.464844 22.910156 -86.429688 20.132812 -71.503906 Z M 108.300781 -96.152344 C 110.035156 -108.648438 111.769531 -119.40625 111.769531 -120.449219 C 111.769531 -121.492188 111.769531 -121.835938 112.117188 -121.492188 C 112.117188 -121.144531 112.117188 -117.671875 111.769531 -113.507812 C 110.730469 -109.6875 109.6875 -95.804688 107.257812 -82.265625 C 105.523438 -68.730469 103.441406 -56.234375 103.09375 -53.804688 C 102.746094 -50.679688 102.746094 -50.332031 102.746094 -51.71875 C 102.398438 -55.539062 104.480469 -71.160156 108.300781 -96.152344 Z M 92.679688 -56.578125 C 93.722656 -68.035156 94.414062 -73.589844 98.929688 -101.011719 C 101.359375 -113.507812 102.746094 -124.960938 102.746094 -127.390625 C 103.789062 -133.292969 104.480469 -132.25 103.441406 -125.65625 C 102.398438 -118.367188 101.703125 -110.382812 97.886719 -85.390625 C 96.152344 -73.242188 94.066406 -59.355469 93.027344 -53.804688 C 91.636719 -41.652344 91.292969 -43.738281 92.679688 -56.578125 Z M 92.679688 -56.578125 "/></g></g></g><g fill="#9a1cbf" fill-opacity="1"><g transform="translate(499.542286, 471.106271)"><g><path d="M 105.871094 -104.828125 C 101.703125 -105.871094 98.234375 -102.746094 97.191406 -98.582031 C 97.191406 -98.582031 92.679688 -73.589844 85.390625 -47.554688 C 72.546875 -2.082031 62.132812 8.679688 58.316406 10.414062 C 56.578125 11.453125 55.539062 11.453125 54.496094 10.414062 C 52.761719 9.71875 47.207031 -2.429688 45.472656 -8.679688 C 43.042969 -15.273438 40.960938 -26.726562 39.917969 -34.710938 C 38.875 -41.652344 37.835938 -65.605469 37.835938 -86.085938 L 41.308594 -91.292969 C 60.746094 -122.53125 70.117188 -141.621094 72.894531 -160.367188 C 76.710938 -181.886719 69.769531 -214.515625 44.777344 -218.335938 C 36.792969 -218.683594 30.894531 -216.945312 27.421875 -213.476562 C -6.59375 -164.53125 0.347656 -98.582031 1.386719 -72.546875 C 5.207031 -27.769531 17.007812 4.164062 35.40625 18.050781 C 42 23.257812 48.941406 26.378906 55.886719 26.378906 C 59.007812 26.378906 62.480469 25.339844 65.605469 23.605469 C 72.546875 19.785156 79.488281 10.414062 86.085938 -3.816406 C 91.292969 -14.578125 95.457031 -27.074219 99.96875 -43.390625 C 107.257812 -70.117188 112.117188 -95.109375 112.117188 -96.152344 C 113.160156 -99.96875 110.035156 -103.789062 105.871094 -104.828125 Z M 36.445312 -110.730469 L 36.445312 -121.144531 C 36.445312 -129.472656 36.792969 -143.359375 37.835938 -154.117188 C 39.222656 -174.597656 43.042969 -192.996094 48.25 -201.671875 C 51.027344 -206.878906 52.414062 -203.0625 54.84375 -199.9375 C 63.523438 -186.402344 62.132812 -167.65625 57.96875 -154.117188 C 55.191406 -143.011719 46.859375 -123.226562 38.53125 -110.382812 L 36.445312 -106.5625 Z M 37.835938 -101.359375 C 38.53125 -103.09375 40.265625 -106.5625 43.042969 -111.078125 C 51.027344 -124.613281 54.496094 -132.25 57.621094 -140.582031 C 59.355469 -144.398438 60.398438 -146.484375 60.746094 -146.484375 C 60.746094 -146.136719 60.746094 -145.441406 60.398438 -144.746094 C 60.050781 -143.707031 59.355469 -142.664062 59.007812 -141.277344 C 55.191406 -131.554688 49.636719 -119.40625 40.960938 -105.175781 L 37.835938 -99.96875 Z M 37.835938 -94.066406 C 38.183594 -95.109375 38.875 -96.496094 39.917969 -97.886719 C 49.289062 -112.8125 59.007812 -131.210938 62.828125 -140.582031 C 63.175781 -141.96875 63.523438 -143.011719 63.871094 -143.359375 L 64.5625 -144.398438 L 63.523438 -141.621094 C 62.480469 -139.886719 62.132812 -137.457031 61.09375 -135.027344 L 52.761719 -117.671875 C 46.859375 -106.910156 40.265625 -95.804688 37.835938 -93.027344 Z M 37.835938 -94.066406 "/></g></g></g><g fill="#9a1cbf" fill-opacity="1"><g transform="translate(596.734298, 471.106271)"><g><path d="M 141.621094 -104.132812 C 137.457031 -105.175781 133.640625 -102.746094 132.597656 -98.582031 C 132.597656 -98.234375 127.738281 -78.101562 120.449219 -55.886719 C 114.894531 -39.570312 111.769531 -33.671875 107.605469 -26.378906 C 105.175781 -22.910156 99.273438 -15.621094 96.496094 -19.4375 C 94.066406 -21.867188 94.066406 -28.464844 95.109375 -36.792969 C 95.109375 -54.148438 112.8125 -121.835938 112.8125 -137.457031 C 113.855469 -143.011719 112.8125 -149.605469 110.382812 -153.425781 C 108.992188 -157.242188 104.480469 -160.367188 103.441406 -159.324219 C 102.746094 -158.632812 102.050781 -158.632812 101.359375 -159.671875 C 98.582031 -162.796875 96.152344 -163.839844 90.945312 -165.574219 C 82.960938 -168.699219 73.933594 -169.390625 63.175781 -168.003906 C 45.472656 -166.269531 26.726562 -154.8125 14.578125 -139.191406 C -5.554688 -112.464844 -9.71875 -53.109375 7.984375 -36.445312 C 11.109375 -33.324219 14.230469 -31.242188 19.785156 -29.503906 C 22.214844 -28.464844 24.296875 -28.808594 28.808594 -28.808594 C 35.40625 -29.15625 39.222656 -29.503906 43.738281 -33.324219 C 50.679688 -38.875 52.414062 -44.429688 54.84375 -50.332031 L 56.578125 -54.84375 C 61.09375 -22.214844 64.910156 -8.679688 75.324219 -3.472656 C 99.96875 9.371094 121.835938 1.042969 134.679688 -51.027344 C 140.234375 -74.628906 147.175781 -94.066406 147.175781 -95.109375 C 148.21875 -99.273438 145.789062 -103.09375 141.621094 -104.132812 Z M 96.496094 -131.554688 C 97.539062 -135.722656 99.273438 -140.582031 100.316406 -139.539062 C 100.316406 -139.191406 100.316406 -136.761719 99.96875 -133.988281 C 98.929688 -131.210938 97.886719 -124.265625 96.84375 -118.714844 C 92.332031 -99.273438 87.472656 -70.464844 85.738281 -53.457031 C 85.390625 -52.414062 85.390625 -52.761719 85.390625 -54.496094 C 85.390625 -64.910156 91.984375 -109.339844 96.496094 -131.554688 Z M 19.785156 -118.714844 C 17.007812 -110.035156 11.453125 -90.597656 11.453125 -86.777344 C 11.453125 -86.085938 11.109375 -85.390625 10.761719 -84.347656 C 10.414062 -84 10.066406 -86.085938 10.414062 -89.902344 C 10.761719 -104.132812 12.496094 -109.339844 17.703125 -118.019531 C 21.867188 -126.003906 22.5625 -125.65625 19.785156 -118.714844 Z M 25.339844 -89.902344 C 22.910156 -79.140625 22.5625 -79.488281 23.605469 -89.554688 C 23.605469 -93.722656 29.503906 -122.183594 34.710938 -122.183594 C 32.28125 -112.8125 27.074219 -99.96875 25.339844 -89.902344 Z M 35.753906 -50.332031 L 35.40625 -52.066406 C 34.710938 -55.191406 34.710938 -76.710938 35.753906 -82.265625 C 37.488281 -94.414062 43.738281 -113.507812 48.597656 -122.183594 C 54.496094 -133.292969 61.09375 -139.886719 70.464844 -145.09375 C 72.894531 -146.484375 75.324219 -146.828125 74.976562 -145.789062 C 66.644531 -129.820312 68.035156 -112.117188 60.050781 -97.539062 C 53.804688 -85.042969 44.082031 -61.09375 38.53125 -53.457031 Z M 35.753906 -50.332031 "/></g></g></g></svg>