<svg xmlns="http://www.w3.org/2000/svg" xmlns:xlink="http://www.w3.org/1999/xlink" width="500" zoomAndPan="magnify" viewBox="0 0 375 374.999991" height="500" preserveAspectRatio="xMidYMid meet" version="1.0"><defs><clipPath id="1b58ca8cac"><path d="M 53 32 L 322.1875 32 L 322.1875 288.320312 L 53 288.320312 Z M 53 32 " clip-rule="nonzero"/></clipPath><clipPath id="ebb21a55ce"><path d="M 52.9375 31.820312 L 322 31.820312 L 322 288 L 52.9375 288 Z M 52.9375 31.820312 " clip-rule="nonzero"/></clipPath></defs><g clip-path="url(#1b58ca8cac)"><path fill="#ddd400" d="M 187.847656 32.703125 L 229.308594 116.753906 L 322.058594 130.234375 L 254.925781 195.703125 L 270.820312 288.074219 L 187.847656 244.464844 L 104.816406 288.074219 L 120.660156 195.703125 L 53.582031 130.234375 L 146.332031 116.753906 Z M 187.847656 32.703125 " fill-opacity="1" fill-rule="nonzero"/></g><g clip-path="url(#ebb21a55ce)"><path fill="#ddd400" d="M 187.203125 31.898438 L 228.714844 115.949219 L 321.464844 129.429688 L 254.335938 194.894531 L 270.175781 287.269531 L 187.203125 243.660156 L 104.226562 287.269531 L 120.070312 194.894531 L 52.9375 129.429688 L 145.6875 115.949219 Z M 187.203125 31.898438 " fill-opacity="1" fill-rule="nonzero"/><path fill="#ddd400" d="M 187.203125 31.898438 L 228.714844 115.949219 L 321.464844 129.429688 L 254.335938 194.894531 L 270.175781 287.269531 L 187.203125 243.660156 L 104.226562 287.269531 L 120.070312 194.894531 L 52.9375 129.429688 L 145.6875 115.949219 Z M 187.203125 31.898438 " fill-opacity="1" fill-rule="nonzero"/><path fill="#ddd400" d="M 187.203125 31.898438 L 228.714844 115.949219 L 321.464844 129.429688 L 254.335938 194.894531 L 270.175781 287.269531 L 187.203125 243.660156 L 104.226562 287.269531 L 120.070312 194.894531 L 52.9375 129.429688 L 145.6875 115.949219 Z M 187.203125 31.898438 " fill-opacity="1" fill-rule="nonzero"/></g></svg>